<svg xmlns="http://www.w3.org/2000/svg" xmlns:xlink="http://www.w3.org/1999/xlink" width="500" zoomAndPan="magnify" viewBox="0 0 375 374.999991" height="500" preserveAspectRatio="xMidYMid meet" version="1.0"><defs><g/><clipPath id="8d22073cd7"><path d="M 181 67.035156 L 206 67.035156 L 206 87 L 181 87 Z M 181 67.035156 " clip-rule="nonzero"/></clipPath><clipPath id="d097cb8a05"><path d="M 92.523438 119 L 127 119 L 127 157 L 92.523438 157 Z M 92.523438 119 " clip-rule="nonzero"/></clipPath><clipPath id="db7a27c616"><path d="M 95 70 L 282 70 L 282 258.285156 L 95 258.285156 Z M 95 70 " clip-rule="nonzero"/></clipPath></defs><rect x="-37.5" width="450" fill="#ffffff" y="-37.499999" height="449.999989" fill-opacity="1"/><rect x="-37.5" width="450" fill="#ffffff" y="-37.499999" height="449.999989" fill-opacity="1"/><path fill="#6a7d25" d="M 148.273438 80.019531 C 148.421875 80.03125 148.953125 80.109375 149.449219 80.191406 C 150.347656 80.335938 150.367188 80.324219 151.953125 78.730469 C 154.742188 75.929688 158.171875 73.703125 161.464844 72.550781 C 162.953125 72.03125 164.980469 71.820312 164.980469 72.183594 C 164.980469 72.585938 163.484375 73.742188 162.367188 74.199219 C 161.710938 74.472656 160.851562 74.929688 160.460938 75.214844 C 159.515625 75.910156 158.691406 77.59375 158.527344 79.167969 C 158.414062 80.246094 158.476562 80.632812 158.929688 81.621094 C 159.222656 82.265625 159.796875 83.125 160.207031 83.53125 C 161.367188 84.695312 164.519531 85.984375 163.65625 84.941406 C 163.492188 84.746094 163.367188 84.097656 163.371094 83.472656 C 163.378906 82.566406 163.59375 81.933594 164.492188 80.160156 C 165.871094 77.429688 166.003906 76.777344 165.503906 75.191406 C 165.125 73.988281 165.125 73.953125 165.558594 73.367188 C 167.0625 71.339844 171.046875 70.539062 174.589844 71.550781 C 177.691406 72.4375 183.367188 75.566406 185.582031 77.605469 C 187.808594 79.65625 189.351562 83.203125 189.359375 86.292969 C 189.367188 89.058594 190.449219 91.304688 186.042969 94.210938 C 185.5 94.929688 183.871094 95.921875 182.808594 96.921875 C 180.949219 98.671875 180.304688 99.261719 180.304688 99.261719 C 180.304688 99.261719 180.339844 101.507812 180.429688 101.507812 C 180.589844 101.507812 181.3125 100.542969 185.125 97.371094 C 187.054688 95.761719 190.398438 94.3125 191.335938 92.453125 C 192.425781 90.289062 192.648438 88.824219 192.582031 84.25 L 192.519531 80.175781 L 193.203125 78.761719 C 193.96875 77.171875 194.945312 76.09375 196.613281 74.992188 C 197.808594 74.207031 199.804688 73.222656 200.089844 73.285156 C 200.414062 73.355469 199.5625 72.257812 199.011719 71.894531 C 198.617188 71.636719 198.238281 71.574219 197.667969 71.683594 C 196.6875 71.867188 194.234375 73.027344 192.597656 74.082031 C 190.414062 75.492188 189.007812 75.324219 185.226562 73.195312 C 179.378906 69.902344 175.410156 68.625 171.078125 68.640625 C 165.847656 68.660156 160.34375 70.125 155.753906 72.726562 C 153.644531 73.921875 152.695312 74.636719 150.910156 76.371094 C 148.199219 79.007812 147.519531 79.953125 148.273438 80.019531 Z M 162.960938 75.9375 C 162.425781 76.589844 161.835938 77.617188 161.648438 78.214844 C 161.460938 78.816406 161.257812 79.550781 161.195312 79.847656 C 161.136719 80.148438 161.117188 79.644531 161.152344 78.730469 C 161.21875 76.867188 161.875 75.394531 162.871094 74.863281 C 163.910156 74.304688 163.945312 74.726562 162.960938 75.9375 Z M 162.960938 75.9375 " fill-opacity="1" fill-rule="nonzero"/><g clip-path="url(#8d22073cd7)"><path fill="#6a7d25" d="M 182.832031 70.375 C 183.25 70.585938 183.761719 70.90625 183.972656 71.085938 C 184.3125 71.386719 184.496094 71.371094 185.820312 70.953125 C 187.714844 70.359375 191.199219 69.835938 193.28125 69.835938 C 197.800781 69.835938 201.605469 71.523438 202.21875 73.796875 C 202.476562 74.753906 202.1875 75.480469 201.117188 76.550781 C 200.007812 77.660156 199.554688 78.976562 199.554688 81.089844 C 199.554688 82.71875 199.632812 83.101562 200.230469 84.316406 C 200.660156 85.1875 201.164062 85.855469 201.613281 86.140625 L 202.3125 86.585938 L 202.449219 85.003906 C 202.597656 83.222656 203.027344 82.121094 204.367188 80.066406 C 205.25 78.71875 205.289062 78.589844 205.195312 77.34375 C 204.96875 74.398438 202.285156 70.964844 198.902344 69.308594 C 195.667969 67.722656 191.613281 67.128906 188.136719 67.734375 C 185.773438 68.144531 182.667969 69.09375 182.222656 69.535156 C 181.859375 69.902344 181.839844 69.878906 182.832031 70.375 Z M 202.339844 79.929688 C 202.648438 79.226562 203.023438 78.070312 203.171875 77.359375 C 203.445312 76.019531 203.804688 75.585938 204.007812 76.351562 C 204.191406 77.058594 203.757812 78.554688 202.960938 79.957031 C 202.554688 80.675781 202.121094 81.410156 202 81.589844 C 201.550781 82.257812 201.757812 81.242188 202.339844 79.929688 Z M 202.339844 79.929688 " fill-opacity="1" fill-rule="nonzero"/></g><path fill="#6a7d25" d="M 220.519531 113.148438 C 221.019531 112.753906 221.316406 112.390625 221.175781 112.34375 C 221.039062 112.296875 220.925781 112.117188 220.925781 111.941406 C 220.925781 111.390625 217.617188 113.28125 216.28125 114.597656 C 215.617188 115.25 215 115.78125 214.902344 115.78125 C 214.703125 115.78125 213.519531 117.5 213.027344 118.503906 C 212.421875 119.738281 212.167969 121.53125 212.253906 123.960938 C 212.300781 125.273438 212.414062 126.464844 212.507812 126.617188 C 212.753906 127.003906 212.777344 126.984375 213.304688 125.960938 C 213.890625 124.824219 214.878906 123.75 216.027344 122.996094 C 219.265625 120.875 219.75 119.875 219.167969 116.53125 C 218.882812 114.890625 219.140625 114.238281 220.519531 113.148438 Z M 216.035156 116.714844 C 215.714844 117.046875 215.246094 117.78125 214.996094 118.347656 C 214.742188 118.914062 214.464844 119.71875 214.382812 120.136719 L 214.230469 120.898438 L 214.203125 120.15625 C 214.15625 118.683594 214.863281 117.097656 216.222656 115.628906 C 216.929688 114.867188 217.554688 114.296875 217.617188 114.355469 C 217.753906 114.492188 216.804688 115.90625 216.035156 116.714844 Z M 216.035156 116.714844 " fill-opacity="1" fill-rule="nonzero"/><path fill="#6a7d25" d="M 210.363281 77.003906 C 210.226562 76.566406 209.824219 76.417969 209.824219 76.800781 C 209.824219 76.921875 209.6875 77.019531 209.519531 77.019531 C 208.96875 77.019531 206.957031 79.273438 206.316406 80.613281 C 205.582031 82.140625 205.511719 83.398438 206.015625 86.019531 C 206.417969 88.117188 206.417969 89.277344 206.015625 90.402344 C 205.777344 91.070312 205.765625 91.304688 205.972656 91.433594 C 206.367188 91.6875 206.65625 91.648438 207.945312 91.164062 C 209.335938 90.644531 210.714844 89.277344 211.140625 87.996094 C 211.542969 86.789062 211.488281 84.453125 211.035156 83.578125 C 210.835938 83.1875 210.332031 82.421875 209.917969 81.886719 C 209 80.679688 208.984375 80.105469 209.835938 78.601562 C 210.25 77.863281 210.449219 77.265625 210.363281 77.003906 Z M 208.273438 81.128906 C 208.183594 81.683594 208.09375 82.917969 208.074219 83.878906 C 208.023438 86.527344 207.757812 87.078125 207.566406 84.941406 C 207.34375 82.464844 207.4375 80.039062 207.78125 79.539062 C 208.0625 79.132812 208.074219 79.132812 208.253906 79.621094 C 208.359375 79.898438 208.367188 80.578125 208.273438 81.128906 Z M 208.273438 81.128906 " fill-opacity="1" fill-rule="nonzero"/><path fill="#6a7d25" d="M 249.707031 113.78125 C 248.207031 113.964844 247.621094 114.695312 246.914062 115.492188 C 245.378906 117.519531 247.21875 120.871094 245.136719 123.617188 C 244.796875 124.339844 244.375 124.621094 243.980469 127.34375 C 247.023438 123.539062 249.421875 120.773438 254.222656 119.585938 C 256.542969 118.253906 257.308594 114.636719 253.472656 115.296875 C 253.945312 114.152344 255.511719 112.957031 256.113281 112.734375 C 257.222656 112.167969 257.628906 112.085938 259.199219 112.082031 L 261.011719 112.078125 L 260.941406 111.394531 C 260.835938 110.328125 260.363281 110.171875 258.648438 110.621094 C 256.308594 111.234375 254.011719 112.695312 252.328125 114.292969 C 250.4375 116.09375 251.378906 113.578125 249.707031 113.78125 Z M 250.890625 117.015625 C 249.039062 118.15625 248.742188 119.253906 248.132812 120.210938 C 247.484375 121.230469 247.179688 122.054688 247.179688 121.640625 C 247.179688 120.675781 249.054688 116.890625 250.503906 116.28125 C 251.925781 115.683594 252.40625 116.078125 250.890625 117.015625 Z M 250.890625 117.015625 " fill-opacity="1" fill-rule="nonzero"/><path fill="#6a7d25" d="M 221.738281 109.769531 C 218.929688 107.023438 218.167969 106.632812 215.609375 106.636719 C 213.46875 106.636719 212.710938 106.902344 211.328125 108.140625 C 210.140625 109.195312 208.929688 111.039062 209.226562 111.335938 C 209.3125 111.421875 209.816406 111.324219 210.347656 111.121094 C 211.472656 110.6875 213.707031 110.621094 214.410156 111 C 214.679688 111.140625 215.371094 111.265625 215.945312 111.277344 C 216.816406 111.289062 217.195312 111.152344 218.195312 110.464844 C 219.160156 109.800781 219.515625 109.664062 220 109.785156 C 220.371094 109.878906 221.457031 110.839844 222.835938 112.289062 C 224.535156 114.082031 225.417969 114.824219 226.535156 115.410156 C 228.292969 116.332031 230.359375 117.023438 232.136719 117.28125 C 233.96875 117.546875 233.949219 117.546875 234.089844 117.316406 C 234.160156 117.203125 234.15625 116.859375 234.082031 116.554688 C 233.976562 116.136719 233.796875 115.996094 233.367188 115.992188 C 230.90625 115.960938 226.828125 114.601562 225.382812 113.332031 C 224.453125 112.519531 224.027344 112.289062 224.324219 112.765625 C 224.417969 112.917969 224.382812 112.960938 224.234375 112.871094 C 224.101562 112.785156 224.039062 112.597656 224.097656 112.449219 C 224.15625 112.300781 223.09375 111.09375 221.738281 109.769531 Z M 218.859375 108.8125 C 218.679688 109.101562 218.484375 109.082031 216.683594 108.59375 C 214.941406 108.128906 212.648438 108.035156 212.265625 108.417969 C 212.125 108.558594 211.953125 108.621094 211.886719 108.554688 C 211.644531 108.3125 213.761719 107.507812 214.640625 107.507812 C 215.953125 107.507812 218.378906 107.988281 218.710938 108.3125 C 218.867188 108.464844 218.933594 108.691406 218.859375 108.8125 Z M 218.859375 108.8125 " fill-opacity="1" fill-rule="nonzero"/><path fill="#6a7d25" d="M 260.273438 107.179688 C 260.761719 108.019531 261.433594 109.488281 261.765625 110.445312 C 262.296875 111.96875 262.375 112.492188 262.359375 114.585938 C 262.335938 117.128906 262.328125 117.164062 260.457031 122.421875 C 259.941406 123.867188 259.679688 124.988281 259.679688 125.75 C 259.675781 126.863281 260.351562 129.324219 260.8125 129.882812 C 261.136719 130.277344 261.257812 130.234375 262.019531 129.445312 C 262.65625 128.789062 262.691406 128.675781 262.503906 127.867188 C 262.074219 126.023438 262.25 123.964844 263.039062 121.492188 C 264.992188 115.378906 264.9375 111.195312 262.855469 106.796875 C 261.789062 104.550781 260.289062 102.703125 257.734375 100.492188 C 257.046875 99.902344 255.011719 98.691406 253.964844 98.257812 L 253.148438 97.917969 L 253.148438 100.863281 L 254.617188 101.621094 C 256.5 102.59375 259.089844 105.136719 260.273438 107.179688 Z M 260.273438 107.179688 " fill-opacity="1" fill-rule="nonzero"/><path fill="#6a7d25" d="M 177.554688 102.746094 C 177.554688 102.746094 177.34375 100.5 177.222656 100.621094 C 176.785156 101.058594 173.402344 103.378906 173.203125 106.074219 C 172.964844 109.285156 174.328125 114.464844 176.019531 117.085938 C 177.023438 118.636719 179.308594 120.949219 179.421875 121.914062 C 179.703125 124.332031 180.269531 125.023438 183.121094 126.464844 C 184.902344 127.363281 185.929688 128.429688 186.460938 129.925781 C 186.8125 130.910156 186.886719 130.992188 187.132812 130.660156 C 187.5625 130.070312 187.835938 128.851562 187.835938 127.496094 C 187.839844 123.648438 186.425781 121.855469 182.195312 120.359375 C 179.542969 119.421875 179.996094 120.378906 178.972656 119.246094 C 174.082031 113.832031 174.246094 107.203125 174.753906 105.707031 C 175.273438 104.1875 177.554688 102.746094 177.554688 102.746094 Z M 181.265625 121.050781 C 182.207031 120.910156 184.796875 122.660156 185.46875 123.894531 C 185.582031 124.105469 185.648438 124.273438 185.613281 124.269531 C 185.582031 124.269531 184.917969 123.839844 184.136719 123.320312 C 183.359375 122.804688 182.28125 122.097656 181.742188 121.75 C 180.871094 121.191406 180.820312 121.117188 181.265625 121.050781 Z M 181.265625 121.050781 " fill-opacity="1" fill-rule="nonzero"/><path fill="#6a7d25" d="M 266.859375 132.789062 C 266.859375 132.875 267.226562 133.011719 267.675781 133.089844 C 268.726562 133.269531 269.132812 133.585938 269.535156 134.515625 C 270.097656 135.839844 271.128906 136.574219 273.449219 137.3125 C 274.621094 137.683594 275.875 138.207031 276.238281 138.476562 C 276.875 138.945312 278.308594 140.894531 278.691406 141.800781 C 278.867188 142.222656 278.882812 142.21875 279.085938 141.695312 C 279.371094 140.960938 279.355469 136.613281 279.0625 135.308594 C 278.582031 133.195312 277.480469 131.769531 275.566406 130.789062 C 274.78125 130.386719 274.25 130.289062 272.886719 130.296875 C 271.339844 130.304688 271.101562 130.367188 270.21875 130.992188 C 269.683594 131.367188 268.832031 131.738281 268.324219 131.8125 C 267.5 131.933594 266.859375 132.359375 266.859375 132.789062 Z M 270.238281 131.808594 C 271.304688 131.03125 275.6875 132.578125 277.179688 134.261719 C 277.726562 134.875 277.523438 134.820312 275.460938 133.777344 C 274.027344 133.058594 273.421875 132.878906 272.039062 132.777344 C 270.167969 132.640625 269.558594 132.3125 270.238281 131.808594 Z M 270.238281 131.808594 " fill-opacity="1" fill-rule="nonzero"/><path fill="#6a7d25" d="M 239.898438 87.667969 C 241.527344 88.148438 244.628906 89.910156 245.949219 91.105469 C 247.128906 92.171875 247.839844 93.300781 248.8125 95.636719 C 249.433594 97.132812 249.5 101.414062 248.933594 103.269531 C 248.097656 106.007812 246.023438 108.109375 243.671875 108.597656 C 241.96875 108.949219 241.21875 108.648438 239.8125 107.03125 C 237.835938 104.757812 234.488281 103.515625 231.738281 104.035156 C 230.660156 104.242188 228.027344 105.316406 228.191406 105.484375 C 228.242188 105.535156 228.660156 105.621094 229.121094 105.679688 C 230.632812 105.867188 232.222656 106.773438 233.640625 108.257812 C 235.496094 110.199219 236.445312 110.476562 238.941406 109.808594 C 240.398438 109.421875 245.425781 109.277344 245.761719 109.617188 C 246.496094 110.347656 244.058594 112.894531 241.226562 114.355469 C 240.121094 114.925781 239.210938 115.472656 239.210938 115.574219 C 239.210938 115.671875 239.304688 116 239.421875 116.300781 C 239.605469 116.789062 239.699219 116.828125 240.308594 116.652344 C 240.683594 116.542969 241.8125 116.058594 242.820312 115.570312 C 247.839844 113.140625 251.359375 107.3125 251.820312 100.660156 C 252.132812 96.1875 250.953125 92.960938 247.863281 89.828125 C 245.253906 87.183594 243.503906 86.070312 240.382812 85.070312 C 238.4375 84.445312 238.023438 84.5625 238.226562 85.679688 C 238.445312 86.882812 238.84375 87.359375 239.898438 87.667969 Z M 237.597656 107.550781 C 237.109375 107.105469 236.441406 106.53125 236.109375 106.273438 C 234.800781 105.257812 235.753906 105.535156 237.972656 106.820312 C 238.664062 107.21875 239.382812 107.78125 239.570312 108.066406 C 240.40625 109.34375 239.222656 109.039062 237.597656 107.550781 Z M 237.597656 107.550781 " fill-opacity="1" fill-rule="nonzero"/><path fill="#6a7d25" d="M 192.191406 195.417969 C 192.191406 195.453125 192.265625 195.484375 192.355469 195.484375 C 192.605469 195.480469 193.308594 194.328125 194.75 191.566406 C 195.46875 190.191406 196.402344 188.425781 196.820312 187.648438 C 197.683594 186.054688 198.027344 185.117188 197.671875 185.335938 C 197.1875 185.636719 193.992188 190.433594 193.453125 191.675781 C 192.992188 192.730469 192.191406 195.105469 192.191406 195.417969 Z M 192.191406 195.417969 " fill-opacity="1" fill-rule="nonzero"/><path fill="#6a7d25" d="M 268.101562 200.351562 C 267.289062 199.929688 265.167969 199.824219 264.355469 200.164062 C 263.355469 200.582031 262.679688 201.433594 262.761719 202.160156 C 262.84375 202.875 263.246094 202.929688 264.914062 202.453125 C 266.191406 202.085938 266.984375 202.292969 267.398438 203.101562 C 268.53125 205.289062 266.4375 208.460938 262.519531 210.488281 C 258.582031 212.527344 256.023438 212.742188 250.808594 211.472656 C 248.429688 210.894531 246.925781 210.660156 245.023438 210.574219 C 242.496094 210.460938 240.109375 210.742188 239.484375 211.226562 C 239.070312 211.546875 239.160156 212.117188 239.675781 212.441406 C 240.898438 213.203125 242.011719 213.414062 245.632812 213.5625 C 249.132812 213.710938 249.492188 213.765625 252.230469 214.613281 C 255.707031 215.683594 257.160156 216.433594 257.882812 217.527344 C 258.351562 218.238281 258.410156 218.527344 258.335938 219.832031 C 258.191406 222.359375 256.542969 225.148438 254.464844 226.367188 L 253.472656 226.953125 L 241.71875 226.953125 L 240.347656 227.542969 C 237.589844 228.722656 234.652344 231.476562 234.980469 232.574219 C 235.058594 232.835938 235.464844 233.667969 235.878906 234.425781 C 236.296875 235.179688 236.746094 235.761719 236.875 235.71875 C 237.011719 235.671875 237.566406 234.902344 238.109375 234.003906 C 239.347656 231.96875 240.304688 231.007812 241.847656 230.253906 C 243.121094 229.628906 245.199219 229.210938 246.289062 229.355469 C 251.941406 230.117188 255.273438 229.25 258.320312 226.226562 C 260.6875 223.875 261.457031 222.015625 261.746094 217.949219 C 261.824219 216.828125 262.035156 215.421875 262.214844 214.820312 C 262.652344 213.34375 264.140625 211.789062 266.195312 210.660156 C 269.324219 208.945312 270.558594 207.222656 270.558594 204.589844 C 270.5625 202.847656 269.546875 201.101562 268.101562 200.351562 Z M 268.101562 200.351562 " fill-opacity="1" fill-rule="nonzero"/><path fill="#6a7d25" d="M 135.507812 236.1875 C 135.386719 235.640625 135.308594 235.613281 133.0625 235.386719 C 129.335938 235.007812 127.550781 233.917969 125.921875 231.015625 C 125.210938 229.75 125.144531 229.488281 125.144531 227.890625 C 125.144531 225.261719 125.980469 222.46875 127.261719 220.839844 C 128.085938 219.785156 130.179688 218.417969 131.59375 218.007812 C 133.144531 217.554688 133.171875 217.054688 131.675781 216.414062 C 129.296875 215.390625 128.84375 215.53125 126.34375 218.078125 C 123.757812 220.710938 122.765625 223.074219 122.753906 226.632812 C 122.746094 230.339844 124.128906 233.617188 126.890625 236.410156 C 128.742188 238.285156 130.121094 239.09375 133.378906 240.21875 C 134.613281 240.648438 135.789062 241.089844 135.988281 241.210938 C 136.835938 241.703125 136.84375 241.621094 136.15625 238.863281 C 135.867188 237.703125 135.574219 236.5 135.507812 236.1875 Z M 135.507812 236.1875 " fill-opacity="1" fill-rule="nonzero"/><path fill="#6a7d25" d="M 156.792969 245.113281 L 156.277344 244.632812 L 154.914062 245.046875 C 153.871094 245.367188 152.890625 245.464844 150.722656 245.464844 C 148.0625 245.464844 147.808594 245.425781 146.53125 244.835938 C 145.070312 244.160156 143.738281 242.894531 143.03125 241.511719 C 142.796875 241.046875 142.144531 239.152344 141.585938 237.296875 C 139.730469 231.152344 138.046875 229.027344 134.117188 227.859375 C 132.941406 227.511719 127.371094 227.308594 126.902344 227.597656 C 126.578125 227.796875 126.605469 228.925781 126.941406 229.171875 C 127.089844 229.28125 127.507812 229.355469 127.863281 229.332031 C 129.046875 229.253906 131.328125 229.6875 132.460938 230.207031 C 134.9375 231.335938 136.546875 233.566406 137.578125 237.296875 C 137.695312 237.71875 137.871094 238.257812 137.972656 238.496094 C 138.070312 238.734375 138.253906 239.59375 138.378906 240.40625 C 138.832031 243.378906 140.726562 246.183594 143.496094 247.988281 C 145.027344 248.988281 146.328125 249.4375 148.707031 249.800781 C 150.769531 250.117188 151.765625 250.054688 154.207031 249.457031 C 156.472656 248.902344 157.355469 248.59375 157.984375 248.148438 L 158.496094 247.785156 L 157.902344 246.691406 C 157.574219 246.089844 157.074219 245.378906 156.792969 245.113281 Z M 156.792969 245.113281 " fill-opacity="1" fill-rule="nonzero"/><path fill="#6a7d25" d="M 192.832031 122.929688 C 192.5625 119.941406 192.472656 114.871094 192.007812 110.488281 C 191.371094 104.515625 189.65625 102.058594 186.640625 102.472656 C 182.832031 103.003906 183.578125 106.511719 183.578125 106.511719 C 183.578125 106.511719 180.28125 105.257812 179.816406 101.828125 C 179.3125 98.132812 180.410156 94 182.859375 90.367188 C 184.007812 88.664062 185.257812 87.507812 186.894531 86.625 C 187.804688 86.132812 187.957031 85.953125 188.019531 85.292969 C 188.105469 84.386719 187.742188 83.050781 187.3125 82.695312 C 186.671875 82.164062 183.152344 84.445312 181.207031 86.65625 C 180.019531 88 178.632812 90.707031 178.105469 92.699219 C 177.835938 93.730469 177.734375 94.996094 177.730469 97.378906 C 177.730469 100.238281 177.917969 101.164062 178.441406 103.195312 C 178.769531 104.472656 180.066406 106.414062 182.195312 107.652344 C 182.738281 107.996094 176.972656 105.453125 176.703125 110.15625 C 176.324219 116.808594 188.875 116.925781 192.832031 122.929688 Z M 192.832031 122.929688 " fill-opacity="1" fill-rule="nonzero"/><path fill="#6a7d25" d="M 184.546875 202.863281 C 184.0625 203.246094 181.523438 206.8125 181.523438 207.117188 C 181.523438 207.878906 184.273438 205.246094 185.121094 203.671875 C 185.65625 202.679688 185.34375 202.238281 184.546875 202.863281 Z M 184.546875 202.863281 " fill-opacity="1" fill-rule="nonzero"/><path fill="#6a7d25" d="M 199.160156 204.515625 C 199.15625 204.898438 199.804688 203.816406 200.46875 202.335938 C 200.824219 201.542969 201.117188 200.746094 201.117188 200.574219 C 201.117188 200.398438 201.363281 200.011719 201.660156 199.714844 C 202.105469 199.269531 202.28125 199.214844 202.640625 199.402344 C 202.996094 199.59375 203.078125 199.570312 203.078125 199.28125 C 203.078125 198.726562 201.746094 196.359375 201.296875 196.117188 C 200.949219 195.933594 200.898438 195.996094 200.898438 196.652344 C 200.898438 197.738281 200.332031 200.558594 199.707031 202.5625 C 199.410156 203.523438 199.164062 204.402344 199.160156 204.515625 Z M 199.160156 204.515625 " fill-opacity="1" fill-rule="nonzero"/><g clip-path="url(#d097cb8a05)"><path fill="#6a7d25" d="M 96.046875 155.960938 C 96.230469 154.617188 96.800781 153.589844 98.238281 151.976562 C 99.660156 150.382812 100.5 148.839844 100.6875 147.480469 C 100.796875 146.6875 100.699219 146.261719 100.136719 145.0625 C 99.164062 142.980469 99.210938 142.574219 100.660156 140.671875 C 101.410156 139.683594 102.746094 138.550781 105.335938 136.703125 C 107.132812 135.417969 111.363281 131.195312 113.195312 128.851562 C 113.972656 127.859375 114.441406 127.425781 114.585938 127.566406 C 114.714844 127.695312 114.804688 129.316406 114.804688 131.527344 C 114.804688 134.972656 114.84375 135.351562 115.292969 136.253906 C 115.945312 137.566406 117.597656 138.757812 119.222656 139.097656 C 120.621094 139.390625 124.199219 139.242188 124.566406 138.878906 C 124.691406 138.75 124.976562 138.648438 125.195312 138.648438 C 125.738281 138.648438 126.667969 138.015625 126.667969 137.644531 C 126.667969 137.460938 126.433594 137.339844 126.070312 137.339844 C 124.777344 137.335938 123.894531 136.902344 122.859375 135.757812 C 120.582031 133.238281 120.054688 132.785156 118.855469 132.3125 C 117.21875 131.667969 116.359375 131 115.894531 130.019531 C 115.546875 129.285156 115.519531 128.730469 115.644531 124.507812 C 115.722656 121.867188 115.695312 119.679688 115.585938 119.507812 C 115.289062 119.042969 114.28125 119.394531 114.035156 120.046875 C 113.917969 120.351562 113.824219 120.960938 113.820312 121.402344 C 113.808594 123.792969 112.3125 127.386719 110.132812 130.25 C 108.191406 132.796875 106.359375 134.460938 101.414062 138.15625 C 99.425781 139.640625 98.066406 140.890625 95.972656 143.15625 C 94.867188 144.347656 94.21875 145.570312 93.242188 148.28125 C 92.507812 150.308594 93.089844 153.753906 94.523438 155.902344 C 95.417969 157.238281 95.871094 157.253906 96.046875 155.960938 Z M 115.46875 132.511719 C 115.582031 132.15625 115.738281 132.332031 116.328125 133.457031 C 117.203125 135.128906 118.261719 136.429688 118.964844 136.699219 C 119.277344 136.816406 119.484375 137.070312 119.484375 137.335938 C 119.484375 137.957031 119.308594 137.902344 117.792969 136.796875 C 116.109375 135.574219 115.09375 133.699219 115.46875 132.511719 Z M 94.578125 148.042969 C 94.382812 147.730469 95.292969 144.992188 95.738281 144.542969 C 95.953125 144.328125 96.300781 143.867188 96.507812 143.515625 C 96.710938 143.167969 97.167969 142.714844 97.515625 142.515625 C 98.140625 142.160156 98.148438 142.160156 98.148438 142.65625 C 98.148438 142.933594 97.855469 143.53125 97.496094 143.984375 C 97.136719 144.433594 96.84375 144.871094 96.84375 144.953125 C 96.84375 145.035156 96.542969 145.4375 96.175781 145.851562 C 95.808594 146.261719 95.453125 146.863281 95.386719 147.191406 C 95.25 147.863281 94.777344 148.363281 94.578125 148.042969 Z M 94.578125 148.042969 " fill-opacity="1" fill-rule="nonzero"/></g><g clip-path="url(#db7a27c616)"><path fill="#6a7d25" d="M 280.234375 152.390625 C 278.203125 146.300781 274.058594 141.042969 269.300781 138.511719 C 266.039062 136.777344 264.703125 135.308594 264.992188 133.765625 C 265.066406 133.359375 265.625 132.359375 266.234375 131.539062 C 269.464844 127.175781 270.734375 122.066406 269.804688 117.195312 C 269.394531 115.050781 268.660156 113.457031 267.496094 112.195312 C 265.664062 110.207031 265.003906 111.527344 266.613281 113.953125 C 269.078125 117.683594 268.589844 122.875 265.335938 127.515625 C 263.535156 130.085938 259.226562 132.753906 254.113281 134.464844 C 251.074219 135.480469 247.582031 136.25 246.007812 136.25 C 245.304688 136.25 245.269531 136.21875 245.410156 135.652344 C 245.710938 134.441406 247.148438 133.414062 250.511719 132.015625 C 253.140625 130.925781 253.925781 130.445312 254.753906 129.433594 C 256.058594 127.84375 256.699219 126.160156 256.714844 124.273438 C 256.734375 122.503906 256.070312 119.414062 255.699219 119.539062 C 255.574219 119.582031 255.351562 120.023438 255.207031 120.519531 C 254.546875 122.753906 253.34375 124.054688 250.632812 125.46875 C 248.3125 126.679688 247.703125 127.425781 247.703125 129.066406 C 247.703125 132.289062 245.933594 134.039062 241.28125 135.410156 C 239.757812 135.863281 239.109375 135.921875 236.058594 135.910156 C 233.265625 135.894531 232.410156 135.820312 231.75 135.519531 C 230.234375 134.839844 230.371094 134.085938 232.359375 132.113281 C 234.878906 129.609375 236.332031 127.285156 237.601562 123.730469 C 238.167969 122.144531 238.222656 121.722656 238.230469 119.046875 C 238.234375 116.246094 238.203125 116.046875 237.609375 114.832031 C 235.957031 111.464844 232.097656 109.574219 227.347656 109.800781 C 224.214844 109.953125 223.53125 110.160156 224.101562 110.792969 C 224.4375 111.164062 224.6875 111.191406 226.566406 111.070312 C 230.535156 110.808594 233.402344 111.746094 234.503906 113.65625 C 235.265625 114.988281 235.597656 117.265625 235.296875 119.164062 C 234.453125 124.539062 229.183594 129.738281 222.753906 131.542969 C 218.535156 132.726562 217.445312 132.734375 217.445312 131.574219 C 217.445312 130.3125 219.621094 129.066406 221.828125 129.066406 C 223.816406 129.066406 225.726562 127.492188 226.496094 125.230469 C 226.953125 123.890625 227.945312 122.871094 229.023438 122.632812 C 230.605469 122.285156 228.863281 121.566406 226.492188 121.589844 C 224.644531 121.609375 222.351562 122.105469 221.390625 122.691406 C 218.882812 124.21875 218.316406 124.976562 217.792969 127.5 C 216.980469 131.410156 215.523438 132.703125 210.152344 134.277344 C 208.203125 134.847656 205.890625 135.167969 204.882812 135.003906 C 203.746094 134.820312 202.605469 133.59375 202.113281 132.019531 C 201.5 130.074219 201.734375 127.46875 202.964844 122.53125 C 205.117188 113.90625 207.261719 109.121094 209.898438 107.078125 C 210.515625 106.601562 211.175781 106.058594 211.367188 105.878906 C 211.558594 105.695312 211.863281 105.546875 212.046875 105.546875 C 212.230469 105.546875 212.824219 105.300781 213.363281 105 C 215.019531 104.070312 219.53125 102.65625 222.996094 101.976562 C 225.40625 101.5 229.703125 100.996094 232.566406 100.851562 C 233.886719 100.785156 236.289062 100.574219 237.90625 100.386719 C 239.523438 100.199219 242.429688 100.046875 244.371094 100.046875 C 246.8125 100.050781 247.917969 99.976562 247.980469 99.804688 C 248.148438 99.316406 248 97.699219 247.765625 97.460938 C 247.625 97.320312 246.089844 97.144531 244.128906 97.042969 C 239.75 96.8125 238.859375 96.667969 238.175781 96.082031 C 237.546875 95.539062 237.519531 95.261719 237.792969 92.136719 C 238.167969 87.863281 236.445312 83.648438 232.875 80.105469 C 230.238281 77.484375 226.589844 75.65625 222.1875 74.75 C 220.460938 74.394531 215.484375 74.265625 215.484375 74.574219 C 215.484375 74.667969 215.628906 74.949219 215.804688 75.199219 C 216.070312 75.582031 216.441406 75.675781 218.210938 75.804688 C 221.917969 76.078125 224.683594 77.027344 227.804688 79.097656 C 230.9375 81.175781 233.183594 84.019531 234.082031 87.046875 C 235.066406 90.371094 233.867188 93.308594 230.769531 95.164062 C 228.277344 96.652344 223.363281 97.949219 220.019531 98.003906 C 218.300781 98.03125 218.082031 97.988281 217.570312 97.507812 C 216.78125 96.765625 216.859375 96.019531 217.886719 94.480469 C 220.507812 90.554688 224.605469 88.523438 231.050781 87.949219 L 232.789062 87.796875 L 232.722656 87.160156 C 232.683594 86.808594 232.441406 86.074219 232.175781 85.527344 L 231.703125 84.53125 L 230.613281 84.59375 C 230.015625 84.628906 228.074219 84.949219 226.304688 85.308594 C 224.132812 85.75 222.820312 85.917969 222.277344 85.816406 C 219.738281 85.355469 218.054688 83.378906 216.488281 79.015625 C 215.660156 76.710938 215.015625 75.726562 213.199219 74 C 211.035156 71.941406 208.746094 70.820312 206.035156 70.484375 C 204.402344 70.285156 204.042969 70.296875 203.777344 70.5625 C 203.5 70.839844 203.523438 70.992188 203.960938 71.769531 C 204.492188 72.714844 204.589844 72.769531 206.125 72.976562 C 208.40625 73.285156 211.304688 75.761719 212.828125 78.707031 C 214.195312 81.351562 214.644531 83.054688 214.765625 86.058594 C 214.894531 89.222656 214.53125 91.230469 213.421875 93.488281 C 211.761719 96.863281 207.1875 99.832031 205.246094 98.792969 C 204.625 98.460938 203.867188 97.011719 202.847656 94.222656 C 201.113281 89.460938 198.148438 85.25 195.136719 83.253906 C 193.71875 82.320312 193.683594 82.371094 193.851562 85.019531 C 194.003906 87.328125 194.015625 87.371094 194.875 88.449219 C 196.519531 90.515625 197.710938 93.5 198.921875 98.589844 C 200.460938 105.0625 200.269531 111.28125 198.332031 117.632812 C 197.917969 119.003906 197.988281 118.992188 197.863281 118 C 197.753906 117.121094 198.859375 114.996094 197.683594 112.652344 C 196.421875 110.144531 195.871094 108.128906 196.132812 106.988281 C 196.226562 106.566406 196.636719 105.539062 197.039062 104.699219 C 197.703125 103.316406 197.773438 102.996094 197.773438 101.214844 C 197.773438 99.53125 197.683594 99.042969 197.128906 97.730469 C 196.617188 96.527344 196.488281 95.902344 196.5 94.75 C 196.515625 93.339844 196.5 93.300781 196.0625 93.535156 C 195.816406 93.667969 195.046875 94.34375 194.355469 95.035156 C 191.996094 97.394531 190.828125 101.101562 191.371094 104.515625 C 191.664062 106.34375 191.894531 106.726562 193.828125 108.507812 C 195.148438 109.726562 195.492188 110.214844 196.375 112.101562 C 198.023438 115.636719 196.074219 118.789062 195.699219 121.46875 C 195.128906 125.535156 192.835938 130.1875 190.140625 132.734375 C 188.28125 134.496094 187.085938 134.734375 185.433594 133.675781 C 183.929688 132.714844 180.851562 129.109375 179.359375 126.5625 C 179.078125 126.082031 178.523438 125.191406 178.125 124.574219 C 176.855469 122.617188 174.65625 118.160156 173.515625 115.238281 C 171.097656 109.046875 169.988281 103.378906 169.988281 97.207031 C 169.988281 91.863281 170.609375 89.324219 173.070312 84.613281 C 174.171875 82.511719 177.03125 78.476562 178.734375 76.628906 C 179.207031 76.113281 179.558594 75.574219 179.511719 75.429688 C 179.390625 75.035156 177.402344 73.753906 176.914062 73.753906 C 176.488281 73.753906 174.394531 75.761719 173.285156 77.238281 C 172.96875 77.65625 172.601562 78.097656 172.472656 78.21875 C 171.308594 79.277344 167.769531 84.96875 166.710938 87.472656 C 165.882812 89.441406 165.535156 89.867188 164.761719 89.867188 C 164.09375 89.867188 163.335938 89.300781 161.257812 87.253906 C 159.035156 85.058594 155.089844 83.132812 150.5 81.996094 C 148.808594 81.578125 147.949219 81.511719 144.082031 81.507812 C 139.757812 81.5 139.566406 81.519531 137.878906 82.105469 C 135.386719 82.972656 134.40625 83.601562 132.429688 85.613281 C 130.675781 87.398438 129.433594 89.441406 128.886719 91.445312 C 128.425781 93.136719 129.875 92.566406 131.011719 90.609375 C 132.351562 88.308594 133.433594 87.09375 135.261719 85.835938 C 137.691406 84.167969 139.175781 83.722656 142.339844 83.71875 C 148.386719 83.707031 154.234375 86.175781 158.828125 90.6875 C 161.367188 93.179688 163.4375 96.507812 163.453125 98.117188 C 163.457031 98.59375 163.390625 98.628906 162.617188 98.523438 C 162.15625 98.460938 161.554688 98.230469 161.28125 98.003906 C 159.570312 96.609375 159.203125 96.179688 158.625 94.882812 C 157.953125 93.382812 157.171875 92.40625 156.273438 91.945312 C 155.976562 91.792969 154.808594 91.402344 153.679688 91.078125 C 151.300781 90.398438 150.277344 89.917969 149.542969 89.128906 C 149.25 88.816406 148.933594 88.5625 148.835938 88.5625 C 148.265625 88.5625 149.167969 92.816406 150.050781 94.316406 C 150.820312 95.609375 152.109375 96.769531 153.21875 97.160156 C 153.75 97.351562 155.113281 97.601562 156.246094 97.71875 C 158.589844 97.960938 160.121094 98.363281 161.183594 99.023438 C 163.945312 100.730469 166.417969 106.269531 165.144531 107.890625 C 164.769531 108.363281 164.039062 108.1875 162.695312 107.289062 C 160.734375 105.984375 157.117188 104.761719 153.988281 104.347656 C 153.390625 104.269531 152.679688 104.167969 152.410156 104.128906 C 152.042969 104.070312 151.832031 104.21875 151.582031 104.699219 C 151.398438 105.054688 151.304688 105.433594 151.371094 105.539062 C 151.4375 105.648438 152.054688 105.851562 152.742188 105.988281 C 158.332031 107.109375 162.476562 109.773438 166.628906 114.910156 C 170.121094 119.234375 172.871094 126.144531 172.910156 130.703125 C 172.925781 132.445312 172.863281 132.769531 172.351562 133.644531 C 171.992188 134.253906 171.417969 134.824219 170.835938 135.152344 C 168.492188 136.472656 163.367188 135.222656 161.257812 132.820312 C 160.875 132.382812 160.320312 131.5 160.027344 130.855469 C 159.542969 129.796875 159.5 129.484375 159.597656 127.578125 C 159.675781 126 159.875 124.960938 160.398438 123.410156 C 161.136719 121.207031 161.433594 119.15625 161.191406 117.878906 C 161.011719 116.925781 160.394531 116.273438 158.808594 115.367188 C 156.910156 114.277344 155.5 112.875 154.722656 111.292969 C 153.914062 109.65625 153.773438 109.695312 153.019531 111.753906 C 151.917969 114.753906 152.257812 117.410156 153.953125 119.070312 C 155.15625 120.25 156.039062 120.609375 158.125 120.769531 L 159.867188 120.902344 L 159.929688 121.667969 C 159.980469 122.25 159.707031 123 158.796875 124.773438 C 157.289062 127.71875 157.195312 128.21875 157.695312 130.753906 C 158.195312 133.300781 158.09375 133.453125 156.339844 132.789062 C 154.675781 132.160156 153.296875 131.199219 151.4375 129.367188 C 148.007812 125.996094 146.273438 122.203125 146.265625 118.0625 C 146.261719 115.953125 146.621094 114.488281 147.917969 111.320312 C 149.121094 108.371094 150.242188 105.007812 150.605469 103.234375 C 151.035156 101.144531 150.828125 98.714844 150.09375 97.246094 C 149.191406 95.441406 147.722656 93.679688 146.539062 92.984375 C 145.582031 92.421875 145.328125 92.375 143.320312 92.386719 C 140.695312 92.398438 140.164062 92.628906 138.347656 94.527344 C 137.003906 95.929688 136.445312 96.835938 136.0625 98.234375 C 135.753906 99.351562 135.921875 99.558594 136.695312 99.007812 C 137.617188 98.351562 139.167969 98.164062 140.832031 98.515625 C 143.753906 99.125 145.152344 98.824219 146.042969 97.382812 C 146.734375 96.261719 147.265625 96.039062 147.976562 96.566406 C 149.285156 97.542969 149.824219 99.738281 149.328125 102.078125 C 149.1875 102.730469 148.152344 105.171875 147.023438 107.507812 C 145.894531 109.84375 144.65625 112.683594 144.269531 113.824219 C 143.640625 115.675781 143.558594 116.214844 143.476562 118.96875 C 143.402344 121.421875 143.457031 122.300781 143.753906 123.3125 C 144.265625 125.074219 145.207031 126.867188 146.378906 128.304688 C 147.703125 129.933594 149.246094 132.339844 149.429688 133.0625 C 149.597656 133.742188 149.238281 134.292969 148.621094 134.292969 C 148.390625 134.292969 147.003906 133.90625 145.542969 133.4375 C 140.566406 131.828125 140.464844 131.8125 135.703125 131.800781 C 131.378906 131.785156 131.339844 131.78125 130.09375 131.171875 C 128.171875 130.230469 127.261719 128.734375 126.988281 126.0625 C 126.667969 122.949219 125.402344 120.53125 123.597656 119.585938 L 123.027344 119.285156 L 122.902344 120.636719 C 122.832031 121.414062 122.476562 122.730469 122.0625 123.730469 C 121.457031 125.210938 121.347656 125.738281 121.351562 127.214844 C 121.359375 129.921875 122.324219 131.617188 124.386719 132.5625 C 125.378906 133.015625 128.738281 133.492188 129.785156 133.328125 C 130.164062 133.269531 131.164062 133.160156 132.003906 133.085938 C 132.839844 133.011719 133.96875 132.875 134.507812 132.78125 C 136.148438 132.496094 139.609375 132.875 141.113281 133.503906 C 141.863281 133.820312 142.328125 134.378906 142.058594 134.652344 C 141.992188 134.71875 140.53125 135.050781 138.808594 135.394531 C 134.914062 136.167969 133.328125 136.734375 129.1875 138.84375 C 125.589844 140.675781 123.703125 141.375 121.484375 141.695312 C 119.402344 141.996094 115.519531 141.949219 113.554688 141.601562 C 111.269531 141.191406 108.015625 140.082031 106.75 139.28125 C 105.585938 138.542969 105.15625 138.558594 104.136719 139.390625 L 103.484375 139.921875 L 104.125 140.589844 C 104.917969 141.425781 108.269531 143.09375 110.015625 143.523438 C 110.734375 143.699219 111.984375 143.910156 112.796875 143.996094 C 114.375 144.15625 115.613281 144.78125 115.75 145.484375 C 115.871094 146.121094 114.734375 147.089844 113.160156 147.691406 C 110.632812 148.65625 107.9375 150.628906 104.683594 153.894531 C 101.722656 156.859375 101.34375 157.3125 99.238281 160.425781 C 96.378906 164.644531 95.253906 168.375 95.277344 173.527344 C 95.289062 176.898438 96.007812 178.9375 97.917969 181.058594 C 99.355469 182.648438 99.476562 183.015625 99.4375 185.640625 C 99.414062 187.242188 99.472656 187.515625 100.027344 188.394531 C 100.367188 188.929688 100.867188 189.488281 101.144531 189.636719 C 102 190.09375 104.269531 192.65625 104.925781 193.90625 C 105.429688 194.855469 105.554688 195.375 105.554688 196.488281 C 105.554688 197.257812 105.644531 197.882812 105.753906 197.882812 C 106.117188 197.882812 107.71875 195.886719 108.285156 194.722656 C 108.996094 193.269531 109.167969 191.589844 108.828125 189.445312 C 108.164062 185.25 106.441406 183.183594 102.613281 181.972656 C 98.5 180.667969 97.152344 179.335938 96.636719 176.066406 C 96.074219 172.503906 97.804688 166.335938 100.023438 163.980469 C 101.335938 162.589844 102.246094 163.273438 103.167969 166.347656 C 103.976562 169.027344 103.949219 171.273438 103.089844 173.058594 C 101.140625 177.09375 104.273438 181.339844 109.195312 181.328125 C 111.824219 181.324219 112.320312 180.890625 110.800781 179.929688 C 109.800781 179.300781 108.867188 177.75 108.164062 175.5625 C 107.644531 173.933594 107.074219 173.171875 105.625 172.164062 C 104.835938 171.617188 104.679688 171.375 104.46875 170.351562 C 104.332031 169.699219 104.203125 167.421875 104.179688 165.289062 C 104.144531 161.890625 104.191406 161.257812 104.574219 160.207031 C 104.8125 159.550781 105.0625 158.960938 105.128906 158.902344 C 105.195312 158.84375 105.484375 158.402344 105.769531 157.921875 C 115.617188 147.953125 117.6875 149.078125 116.953125 151.722656 C 116.933594 153.902344 118.757812 159.351562 117.328125 159.335938 C 115.359375 159.3125 115.394531 162.460938 116.324219 164.214844 C 118.824219 169.4375 125.792969 169.527344 127.410156 169.074219 C 123.183594 162.828125 124.625 160.726562 122.105469 159.441406 C 120.0625 158.402344 120.203125 159.195312 119.78125 158.722656 C 118.425781 157.199219 117.234375 151.617188 119.28125 149.246094 C 121.328125 146.875 124.046875 147.59375 129.125 144.863281 C 131.210938 143.746094 135.113281 141.582031 137.007812 140.941406 C 142.351562 139.136719 146.972656 138.472656 148.019531 140.769531 C 148.433594 141.679688 148.167969 142.308594 145.71875 144.375 C 144.414062 145.476562 143.683594 149.289062 143.683594 149.289062 C 143.683594 149.289062 141.46875 146.011719 137.644531 149.691406 C 133.695312 158.375 144.660156 158.960938 146.800781 170.316406 C 150.085938 155.800781 155.785156 155.203125 153.222656 148.082031 C 147.777344 143.011719 145.597656 149.105469 145.597656 149.105469 C 145.597656 149.105469 145.261719 146.640625 147.554688 144.613281 C 153.542969 139.3125 161.730469 143.632812 165.78125 145.507812 C 167.152344 146.140625 167.753906 146.609375 169.476562 148.390625 C 172.691406 151.71875 172.621094 151.503906 172.9375 158.902344 C 173.113281 162.941406 173.324219 165.601562 173.546875 166.523438 C 174.433594 170.191406 174.550781 171.503906 174.222656 174.023438 C 174.050781 175.328125 173.816406 176.699219 173.699219 177.066406 C 172.671875 180.324219 172.601562 180.824219 172.601562 184.648438 C 172.601562 188.96875 172.402344 190.351562 171.457031 192.65625 C 169.519531 197.378906 167.09375 200.328125 163.308594 202.566406 C 162.132812 203.261719 160.90625 204.011719 160.582031 204.230469 C 160.257812 204.453125 159.925781 204.632812 159.84375 204.632812 C 159.765625 204.632812 158.757812 205.011719 157.605469 205.472656 C 153.976562 206.929688 150.753906 207.753906 145.539062 208.5625 C 142.257812 209.070312 141.34375 209.289062 139.894531 209.90625 C 138.480469 210.511719 138.546875 210.914062 140.238281 212.015625 C 141.613281 212.910156 141.625 212.914062 142.417969 212.582031 C 144.363281 211.769531 146.753906 211.386719 149.917969 211.386719 C 153.574219 211.382812 155.457031 211.046875 160.8125 209.4375 C 164.734375 208.257812 165.152344 208.257812 165.648438 209.460938 C 166.269531 210.957031 165.105469 214.472656 163.613281 215.609375 C 162.394531 216.542969 160.417969 217.285156 157.796875 217.800781 C 154.296875 218.488281 152.515625 218.496094 149.742188 217.835938 C 145.308594 216.785156 142.332031 215.542969 138.53125 213.15625 C 137.933594 212.78125 136.613281 212.058594 135.59375 211.546875 C 133.769531 210.636719 133.707031 210.621094 131.132812 210.550781 C 128.664062 210.484375 128.316406 210.53125 124.816406 211.402344 C 121.648438 212.191406 120.789062 212.324219 118.832031 212.328125 C 116.910156 212.328125 116.269531 212.234375 114.804688 211.734375 C 112.378906 210.90625 110.433594 209.800781 109.09375 208.492188 C 107.726562 207.15625 107.292969 206.3125 107.292969 204.988281 C 107.292969 204.179688 107.425781 203.847656 107.992188 203.199219 C 108.679688 202.417969 108.714844 202.40625 109.921875 202.53125 C 110.980469 202.644531 111.210938 202.597656 111.550781 202.222656 C 111.941406 201.796875 111.929688 201.765625 111.15625 200.992188 C 110.457031 200.292969 110.210938 200.1875 109.054688 200.105469 C 107.371094 199.984375 106.824219 200.132812 105.871094 200.96875 C 104.691406 202.003906 104.246094 203.054688 104.246094 204.789062 C 104.25 207.570312 105.625 209.40625 109.015625 211.171875 C 111.644531 212.539062 112.210938 213.558594 112.714844 217.808594 C 113.304688 222.78125 114 224.585938 116.125 226.628906 C 117.371094 227.824219 120.15625 229.460938 120.949219 229.460938 C 121.242188 229.460938 121.335938 228.253906 121.089844 227.617188 C 121.015625 227.421875 120.5 227.03125 119.945312 226.746094 C 118.613281 226.0625 117.011719 224.386719 116.398438 223.035156 C 115.417969 220.867188 115.847656 218.308594 117.453125 216.785156 C 118.605469 215.691406 122.238281 214.28125 125.210938 213.769531 C 127.957031 213.296875 131.066406 214.085938 134.058594 216.011719 C 134.84375 216.515625 135.535156 216.984375 135.59375 217.054688 C 136.179688 217.722656 139.382812 219.507812 142.015625 220.632812 C 146.441406 222.523438 148.785156 223.132812 153.753906 223.683594 C 158.621094 224.222656 161.347656 224.082031 164.238281 223.132812 C 165.738281 222.640625 168.410156 221.070312 169.554688 220.011719 C 171.324219 218.367188 173.277344 217.96875 174.070312 219.085938 C 175.0625 220.480469 174.058594 222.402344 172.636719 224.769531 C 170.914062 227.644531 167.785156 230.28125 165.488281 230.796875 C 163.890625 231.152344 162.875 230.871094 160.746094 229.484375 C 158.273438 227.867188 156.972656 227.511719 153.441406 227.488281 C 150.820312 227.46875 150.34375 227.523438 149.078125 228 C 147.183594 228.714844 145.578125 229.539062 143.867188 230.675781 C 141.464844 232.269531 141.582031 232.105469 142.023438 233.265625 C 142.234375 233.816406 142.484375 234.316406 142.582031 234.375 C 142.675781 234.433594 143.421875 234.023438 144.234375 233.464844 C 146.207031 232.109375 148.042969 231.265625 149.871094 230.878906 C 151.78125 230.472656 152.21875 230.472656 154.269531 230.898438 C 157.117188 231.484375 159.1875 232.40625 160.585938 233.707031 L 161.824219 234.859375 L 161.820312 236.355469 C 161.820312 237.515625 161.695312 238.089844 161.261719 238.945312 L 160.707031 240.046875 L 161.4375 241.101562 C 161.835938 241.683594 162.433594 242.464844 162.765625 242.84375 L 163.367188 243.527344 L 163.925781 242.972656 C 164.234375 242.667969 164.933594 241.78125 165.476562 241.003906 C 166.601562 239.398438 167.203125 238.785156 168.136719 238.292969 C 168.753906 237.96875 168.8125 237.976562 169.171875 238.414062 C 169.421875 238.714844 169.550781 239.246094 169.550781 239.960938 C 169.550781 241.472656 170.3125 245.042969 171.085938 247.160156 C 171.441406 248.136719 172.234375 249.816406 172.84375 250.894531 C 173.988281 252.902344 174.023438 253.199219 173.1875 253.726562 C 172.285156 254.296875 167.492188 252.363281 165.917969 250.796875 C 164.761719 249.644531 163.179688 247.359375 161.714844 244.707031 C 159.144531 240.070312 157.070312 237.625 154.6875 236.433594 C 153.5 235.839844 153.175781 235.777344 151.285156 235.777344 C 149.617188 235.78125 148.652344 235.925781 146.492188 236.5 C 144.886719 236.925781 143.699219 237.359375 143.566406 237.566406 C 143.417969 237.804688 143.429688 238.179688 143.605469 238.75 C 144.054688 240.203125 143.992188 240.1875 146.378906 239.574219 C 149.203125 238.847656 151.328125 238.894531 152.910156 239.714844 C 154.429688 240.503906 156.566406 242.167969 157.292969 243.132812 C 158.136719 244.253906 158.636719 244.929688 160.386719 247.320312 C 162.300781 249.9375 167.375 254.996094 169.179688 256.085938 C 170.636719 256.964844 172.03125 257.496094 173.867188 257.867188 C 175.464844 258.191406 179.132812 257.921875 180.714844 257.363281 C 183.410156 256.414062 186.097656 254.558594 186.097656 253.648438 C 186.097656 253.261719 185.082031 251.675781 184.835938 251.675781 C 184.753906 251.675781 184.191406 251.859375 183.59375 252.085938 C 181.847656 252.742188 180.828125 252.832031 179.367188 252.460938 C 177.746094 252.042969 176.632812 251.359375 175.511719 250.085938 C 171.976562 246.066406 171.648438 239.808594 174.621094 233.175781 C 175.789062 230.570312 180.414062 222.773438 182.183594 220.433594 C 184.851562 216.898438 186.839844 215.757812 188.667969 216.703125 C 189.34375 217.050781 191.960938 219.800781 192.976562 221.226562 C 193.925781 222.558594 199.25 231.40625 200.007812 232.902344 C 202.460938 237.777344 202.625 243.472656 200.445312 247.925781 C 199.675781 249.5 197.921875 251.390625 196.65625 252.011719 C 195.46875 252.589844 193.058594 252.597656 191.898438 252.023438 C 189.882812 251.019531 187.21875 247.929688 185.875 245.03125 C 184.605469 242.292969 184.277344 240.824219 184.261719 237.847656 C 184.242188 234.816406 184.566406 233.679688 185.765625 232.515625 C 186.882812 231.433594 187.664062 231.503906 188.835938 232.800781 C 189.339844 233.355469 189.910156 234.273438 190.101562 234.835938 C 190.808594 236.90625 190.464844 239.863281 189.042969 244.035156 C 188.398438 245.925781 188.375 246.246094 188.828125 247.125 C 189.097656 247.644531 189.289062 247.769531 189.746094 247.714844 C 190.238281 247.65625 190.429688 247.390625 191.117188 245.792969 C 193.609375 240.003906 193.914062 237.308594 192.53125 233.332031 C 191.433594 230.171875 188.71875 226.761719 187.304688 226.761719 C 185.6875 226.761719 182.835938 230.285156 181.816406 233.542969 C 181.300781 235.203125 181.265625 235.558594 181.355469 238.441406 C 181.441406 241.160156 181.53125 241.753906 182.0625 243.183594 C 183.789062 247.828125 187.539062 253.269531 190.679688 255.675781 C 191.449219 256.265625 194.097656 257.457031 195.269531 257.738281 C 197.023438 258.164062 200.597656 258.082031 202.207031 257.578125 C 203.738281 257.097656 205.773438 255.945312 207.246094 254.722656 C 209.023438 253.246094 212.488281 249.476562 213.359375 248.078125 C 213.953125 247.121094 213.878906 246.917969 212.773438 246.414062 C 212.46875 246.273438 212.21875 246.070312 212.21875 245.964844 C 212.21875 245.707031 210.984375 247.050781 210.535156 247.792969 C 209.871094 248.898438 206.023438 252.480469 204.871094 253.0625 C 203.363281 253.828125 201.804688 254.15625 201.046875 253.867188 C 200.726562 253.746094 200.464844 253.515625 200.464844 253.351562 C 200.464844 253.191406 201.082031 252.03125 201.835938 250.777344 C 203.691406 247.6875 204.601562 244.761719 204.9375 240.804688 C 205.101562 238.867188 205.335938 238.171875 205.828125 238.171875 C 206.382812 238.171875 207.914062 239.363281 210.347656 241.691406 C 211.554688 242.847656 212.886719 244.074219 213.296875 244.414062 C 213.710938 244.753906 214.347656 245.308594 214.710938 245.644531 C 215.726562 246.582031 219.375 248.929688 220.640625 249.460938 C 222.011719 250.03125 224.339844 250.09375 226.269531 249.605469 C 226.984375 249.425781 228.453125 248.839844 229.535156 248.308594 C 231.140625 247.523438 231.828125 247.015625 233.238281 245.578125 C 234.910156 243.875 235.914062 242.421875 235.621094 242.128906 C 235.542969 242.050781 234.703125 241.949219 233.75 241.90625 L 232.027344 241.828125 L 230.570312 243.1875 C 227.351562 246.203125 223.433594 246.78125 219.535156 244.816406 C 217.863281 243.976562 215.003906 241.851562 214.253906 240.894531 C 213.976562 240.535156 213.214844 239.566406 212.5625 238.738281 C 211.910156 237.914062 211.152344 236.816406 210.878906 236.296875 L 210.378906 235.359375 L 211.003906 234.710938 C 211.777344 233.902344 216.980469 231.210938 219.226562 230.457031 C 222.808594 229.253906 226.035156 230.0625 228.945312 232.890625 C 230.210938 234.117188 231.21875 235.78125 231.121094 236.476562 C 231.058594 236.910156 230.9375 236.96875 230.152344 236.9375 C 229.660156 236.914062 228.484375 236.621094 227.542969 236.285156 C 226.144531 235.789062 225.460938 235.671875 223.867188 235.671875 C 222.089844 235.671875 221.789062 235.738281 220.601562 236.363281 C 219.878906 236.742188 218.671875 237.6875 217.890625 238.480469 L 216.484375 239.910156 L 217.914062 241.386719 L 219.367188 240.550781 C 222.371094 238.816406 225.277344 238.640625 229.746094 239.917969 C 231.914062 240.539062 232.417969 240.605469 235.082031 240.59375 C 237.585938 240.585938 238.316406 240.5 239.980469 240.015625 C 242.039062 239.421875 244.648438 238.214844 246.222656 237.128906 C 248.273438 235.71875 250.59375 233.011719 251.066406 231.476562 C 251.207031 231.019531 251.152344 230.988281 250.226562 230.988281 C 249.265625 230.988281 249.203125 231.027344 248.09375 232.441406 C 245.535156 235.699219 240.308594 238.550781 237.773438 238.074219 C 236.800781 237.890625 235.574219 236.671875 234.1875 234.503906 C 232.539062 231.933594 229.933594 229.4375 227.804688 228.390625 C 225.574219 227.296875 223.808594 226.847656 221.722656 226.847656 C 219.042969 226.847656 217.664062 227.320312 214.398438 229.339844 C 213.5 229.894531 212.101562 230.554688 211.289062 230.800781 C 210.007812 231.191406 209.671875 231.21875 208.785156 230.996094 C 205.375 230.152344 201.804688 225.472656 200.929688 220.703125 C 200.667969 219.269531 200.914062 218.234375 201.566406 218.027344 C 201.835938 217.941406 202.976562 218.421875 204.867188 219.414062 C 208.46875 221.3125 210.960938 222.34375 213.691406 223.070312 C 215.519531 223.554688 216.238281 223.632812 218.96875 223.625 C 222.570312 223.613281 225.152344 223.175781 229.09375 221.910156 C 231.601562 221.105469 236.207031 219.035156 236.480469 218.59375 C 236.761719 218.136719 236.148438 217.703125 235.214844 217.699219 C 233.765625 217.691406 232.421875 217.296875 231.429688 216.589844 L 230.503906 215.929688 L 228.722656 216.617188 C 226.175781 217.597656 224.179688 217.921875 220.628906 217.921875 C 216.113281 217.921875 214.296875 217.355469 212.074219 215.253906 C 210.597656 213.855469 209.792969 212.253906 209.78125 210.679688 C 209.761719 208.574219 210.246094 208.238281 212.351562 208.886719 C 212.9375 209.070312 215.328125 209.359375 217.664062 209.535156 C 225.9375 210.148438 229.789062 211.183594 231.09375 213.132812 C 232.265625 214.886719 233.292969 215.878906 234.253906 216.179688 C 234.769531 216.34375 235.285156 216.542969 235.40625 216.625 C 235.523438 216.707031 236.410156 216.824219 237.371094 216.886719 C 239.222656 217.007812 242.597656 218.003906 243.996094 218.839844 C 246.253906 220.191406 248.058594 222.386719 248.921875 224.820312 C 249.140625 225.441406 249.398438 225.898438 249.492188 225.839844 C 249.585938 225.78125 249.664062 225.84375 249.664062 225.976562 C 249.664062 226.125 250.042969 226.195312 250.648438 226.164062 C 251.890625 226.101562 252.042969 225.671875 251.535156 223.621094 C 250.917969 221.117188 250.0625 219.59375 248.277344 217.832031 C 246.53125 216.109375 245.679688 215.675781 241.878906 214.574219 C 240.890625 214.285156 239.957031 213.953125 239.808594 213.835938 C 239.660156 213.71875 239.28125 213.5625 238.964844 213.488281 C 238.648438 213.414062 237.71875 212.65625 236.898438 211.808594 C 234.75 209.59375 234.046875 209.285156 229.746094 208.667969 C 225.339844 208.035156 222.425781 207.320312 219.1875 206.070312 C 217.160156 205.289062 213.957031 203.90625 213.308594 203.53125 C 213.128906 203.429688 212.441406 203.042969 211.785156 202.679688 C 211.125 202.3125 209.753906 201.394531 208.738281 200.636719 C 206.070312 198.648438 203.867188 195.449219 203.050781 192.378906 C 202.914062 191.875 202.742188 189.109375 202.664062 186.234375 C 202.542969 181.53125 202.480469 180.910156 202.066406 180.03125 C 201.265625 178.335938 201.117188 177.855469 201.117188 176.957031 C 201.117188 176.480469 200.957031 175.382812 200.761719 174.523438 C 200.214844 172.113281 200.453125 169.679688 201.570312 166.308594 C 202.460938 163.621094 202.476562 163.53125 202.644531 159.339844 C 202.835938 154.550781 203.03125 153.617188 204.425781 150.847656 C 206.117188 147.488281 209.464844 144.574219 213.214844 143.1875 C 214.253906 142.804688 214.992188 142.707031 217.007812 142.699219 C 219.183594 142.691406 219.664062 142.757812 220.648438 143.199219 C 222.726562 144.132812 224.101562 146.074219 224.636719 148.828125 C 224.988281 150.625 224.71875 151.042969 222.722656 151.808594 C 221.660156 152.214844 220.941406 152.671875 220.21875 153.410156 C 218.925781 154.726562 218.601562 155.578125 218.648438 157.519531 C 218.683594 158.972656 218.761719 159.195312 219.789062 160.894531 C 221.261719 163.332031 221.511719 164.097656 221.191406 165.144531 C 220.75 166.589844 221.308594 166.488281 222.886719 164.835938 C 225.855469 161.730469 227.882812 157.960938 227.886719 155.53125 C 227.890625 154.710938 227.671875 153.980469 227.023438 152.589844 C 226.546875 151.570312 226.15625 150.558594 226.15625 150.339844 C 226.148438 149.359375 225.167969 146.207031 224.285156 144.339844 C 223.757812 143.214844 223.324219 142.164062 223.324219 142.003906 C 223.324219 141.519531 224.28125 141.421875 227.308594 141.582031 C 230.691406 141.761719 230.914062 141.789062 234.316406 142.46875 C 238.894531 143.378906 241.015625 144.210938 244.339844 146.398438 C 247.421875 148.421875 248.890625 150.445312 249.550781 153.574219 C 250.328125 157.246094 249.507812 160.566406 247.28125 162.730469 C 246.035156 163.945312 245.214844 164.222656 243.375 164.054688 C 238.488281 163.605469 238.882812 163.59375 237.601562 164.222656 C 236.28125 164.867188 235.03125 166.210938 234.136719 167.941406 C 233.515625 169.148438 233.0625 172.40625 233.515625 172.40625 C 233.652344 172.40625 233.699219 172.574219 233.625 172.789062 C 233.550781 172.996094 233.84375 172.710938 234.28125 172.148438 C 235.238281 170.917969 237.082031 169.949219 239.351562 169.476562 C 241.664062 169 243.113281 168.277344 244.171875 167.074219 C 244.679688 166.5 245.09375 165.949219 245.09375 165.851562 C 245.09375 165.757812 246 165 247.105469 164.175781 C 248.210938 163.347656 249.273438 162.488281 249.460938 162.257812 C 250.476562 161.039062 251.164062 159.160156 251.503906 156.679688 C 251.582031 156.113281 251.722656 155.601562 251.816406 155.546875 C 252.066406 155.390625 252.824219 157.082031 253.328125 158.917969 C 254.203125 162.101562 254.511719 164.460938 254.390625 167.039062 C 254.253906 169.917969 251.972656 172.421875 251.972656 172.421875 C 251.972656 172.421875 250.578125 166.898438 245.484375 169.03125 C 240.960938 173.617188 246.074219 175.859375 242.515625 188.023438 C 251.675781 178.902344 260.367188 182.480469 259.265625 175.371094 C 257.308594 170.878906 253.289062 173.125 253.289062 173.125 C 253.289062 173.125 255.785156 170.28125 255.339844 164.972656 C 254.90625 159.84375 254.925781 157.976562 252.890625 153.714844 C 252.300781 152.476562 251.859375 151.347656 251.914062 151.210938 C 251.96875 151.070312 252.832031 151.792969 253.832031 152.8125 C 255.285156 154.292969 255.886719 155.121094 256.824219 156.925781 C 259.253906 161.605469 262.300781 163.429688 267.8125 163.515625 C 270.351562 163.554688 272.316406 163.296875 271.78125 163 C 269.34375 161.789062 268.167969 161.984375 266.328125 158.476562 C 264.777344 155.601562 262.984375 154.363281 259.671875 153.894531 C 258.777344 153.769531 257.6875 153.570312 257.25 153.453125 C 256.320312 153.203125 254.285156 151.730469 253.039062 150.40625 C 252.160156 149.472656 249.667969 147.734375 245.59375 145.203125 C 243.363281 143.820312 242.261719 142.6875 242.261719 141.78125 C 242.261719 141.203125 243.09375 140.441406 244.023438 140.164062 C 247.246094 139.214844 255.441406 138.574219 258.042969 139.0625 C 259.707031 139.378906 261.199219 140.285156 261.679688 141.269531 C 261.925781 141.769531 262.066406 142.65625 262.09375 143.875 C 262.117188 144.894531 262.21875 146.023438 262.320312 146.386719 C 262.578125 147.324219 264.140625 148.894531 265.761719 149.84375 C 267.640625 150.945312 268.804688 151.941406 269.582031 153.117188 C 269.941406 153.660156 270.300781 154.109375 270.382812 154.109375 C 271.097656 154.132812 271.277344 148.527344 270.613281 146.839844 C 270.40625 146.3125 269.632812 145.246094 268.898438 144.472656 C 267.753906 143.265625 267.28125 142.949219 265.570312 142.242188 C 264.257812 141.699219 263.378906 141.183594 263.007812 140.742188 L 262.441406 140.070312 L 263.320312 140.003906 C 265.304688 139.855469 269.347656 141.992188 271.8125 144.488281 C 273.738281 146.441406 276.714844 151.796875 277.773438 155.21875 C 278.714844 158.25 278.226562 161.792969 276.398438 165.25 C 275.335938 167.269531 274.792969 167.652344 272.777344 167.832031 C 269.761719 168.097656 268.527344 169.394531 267.519531 173.363281 C 267.167969 174.742188 266.738281 176.144531 266.566406 176.480469 C 266.160156 177.257812 265.152344 178.195312 264.523438 178.386719 C 264.25 178.46875 264.03125 178.675781 264.03125 178.847656 C 264.03125 179.085938 264.371094 179.160156 265.5 179.15625 C 268.339844 179.152344 270.738281 178.523438 272.152344 177.410156 C 273.378906 176.445312 274.617188 173.527344 275.007812 170.664062 C 275.199219 169.28125 276.035156 167.589844 277.105469 166.429688 C 278.578125 164.832031 279.269531 165.203125 279.269531 167.589844 C 279.269531 169.082031 278.902344 170.820312 277.847656 174.316406 C 276.636719 178.328125 276.050781 179.316406 272.949219 182.53125 C 269.4375 186.175781 269.140625 186.746094 269.167969 189.828125 C 269.183594 191.710938 269.28125 192.34375 269.710938 193.398438 C 270 194.105469 270.445312 194.820312 270.695312 194.984375 C 271.136719 195.277344 271.15625 195.253906 271.15625 194.394531 C 271.15625 193.074219 271.585938 192.472656 273.34375 191.347656 C 275.464844 189.984375 277.046875 188.445312 277.574219 187.230469 C 278.125 185.96875 278.152344 183.734375 277.636719 181.691406 C 277.429688 180.867188 277.308594 179.832031 277.367188 179.394531 C 277.425781 178.957031 278.0625 177.179688 278.785156 175.449219 C 280.585938 171.113281 281.144531 169.378906 281.542969 166.910156 C 282.265625 162.382812 281.785156 157.027344 280.234375 152.390625 Z M 248.355469 130.777344 C 248.65625 130.527344 249.652344 129.945312 250.570312 129.480469 C 251.699219 128.914062 252.511719 128.320312 253.0625 127.660156 C 254 126.539062 254.285156 126.511719 253.605469 127.613281 C 252.949219 128.675781 251.410156 130.035156 250.125 130.683594 C 249.519531 130.992188 248.75 131.238281 248.417969 131.234375 L 247.8125 131.230469 Z M 218.660156 127.503906 C 219.402344 126.070312 221.785156 123.925781 223.097656 123.511719 C 223.449219 123.402344 223.179688 123.722656 222.3125 124.445312 C 220.976562 125.558594 220.546875 126.03125 219.390625 127.703125 C 218.453125 129.054688 217.933594 128.914062 218.660156 127.503906 Z M 193.554688 106.019531 C 192.847656 105.167969 192.429688 101.34375 192.871094 99.800781 C 192.984375 99.410156 193.070312 99.757812 193.179688 101.007812 C 193.261719 101.96875 193.523438 103.464844 193.761719 104.324219 C 194 105.1875 194.195312 105.992188 194.195312 106.113281 C 194.195312 106.433594 193.855469 106.382812 193.554688 106.019531 Z M 157.542969 96.871094 C 156.132812 97.125 154.097656 96.195312 152.71875 94.667969 C 151.683594 93.523438 151.695312 93.152344 152.734375 93.984375 C 153.183594 94.34375 154.433594 94.996094 155.511719 95.441406 C 156.589844 95.882812 157.601562 96.363281 157.761719 96.511719 C 157.996094 96.730469 157.957031 96.792969 157.542969 96.871094 Z M 158.015625 119.429688 C 157.304688 119.070312 156.777344 118.535156 156.027344 117.414062 C 155.101562 116.035156 154.589844 114.78125 154.84375 114.527344 C 154.898438 114.472656 155.378906 115.113281 155.914062 115.945312 C 156.519531 116.890625 157.199219 117.652344 157.722656 117.964844 C 158.835938 118.628906 159.539062 119.277344 159.539062 119.632812 C 159.539062 120.042969 159.113281 119.988281 158.015625 119.429688 Z M 146.859375 94.273438 C 146.722656 94.695312 145.40625 94.65625 144.191406 94.199219 C 143.550781 93.957031 142.679688 93.808594 142.070312 93.84375 C 140.832031 93.90625 140.707031 93.65625 141.851562 93.417969 C 143.820312 93.003906 147.09375 93.5625 146.859375 94.273438 Z M 126.386719 130.777344 C 125.316406 129.976562 124.914062 128.90625 124.601562 126.015625 C 124.484375 124.945312 124.503906 124.867188 124.773438 125.253906 C 124.941406 125.496094 125.34375 126.488281 125.664062 127.460938 C 125.988281 128.433594 126.539062 129.609375 126.886719 130.074219 C 127.238281 130.539062 127.527344 130.988281 127.53125 131.078125 C 127.542969 131.378906 127.003906 131.234375 126.386719 130.777344 Z M 100.382812 181.886719 C 101.855469 182.210938 103.5 183.539062 105.414062 185.960938 C 105.863281 186.527344 106.105469 186.980469 105.945312 186.96875 C 105.253906 186.90625 104.910156 186.71875 104.789062 186.335938 C 104.589844 185.710938 102.613281 184.027344 101.058594 183.15625 C 99.53125 182.304688 99.167969 181.621094 100.382812 181.886719 Z M 104.519531 174.417969 C 104.644531 176.0625 105.128906 177.589844 105.808594 178.472656 C 106.027344 178.761719 106.203125 179.078125 106.203125 179.183594 C 106.203125 180.015625 104.363281 177.789062 104.039062 176.5625 C 103.84375 175.824219 103.707031 174.0625 103.777344 173.21875 C 103.796875 173.007812 103.941406 172.835938 104.105469 172.835938 C 104.316406 172.835938 104.433594 173.292969 104.519531 174.417969 Z M 120.488281 162.855469 C 120.488281 162.855469 120.769531 164.789062 123.574219 166.773438 C 123.542969 166.9375 118.96875 164.84375 118.710938 160.964844 C 118.414062 159.34375 119.289062 160.429688 120.488281 162.855469 Z M 184.484375 145.726562 C 185.292969 144.765625 188.125 141.828125 190.777344 139.191406 C 195.296875 134.703125 195.65625 134.285156 196.511719 132.550781 C 197.015625 131.53125 197.570312 130.011719 197.746094 129.175781 C 198.078125 127.570312 198.183594 124.492188 197.90625 124.496094 C 197.816406 124.496094 197.3125 125.53125 196.78125 126.796875 C 195.773438 129.207031 194.347656 131.855469 193.371094 133.136719 C 193.054688 133.554688 191.3125 135.210938 189.5 136.820312 C 186.003906 139.925781 185.582031 140.136719 185.050781 139.023438 C 184.632812 138.144531 184.867188 137.75 185.304688 138.59375 C 185.507812 138.984375 185.769531 139.300781 185.886719 139.300781 C 186.003906 139.300781 186.867188 138.542969 187.804688 137.613281 C 188.742188 136.683594 190.382812 135.09375 191.449219 134.074219 C 194.09375 131.550781 195.550781 128.964844 197.285156 123.714844 C 197.941406 121.730469 198.019531 121.597656 198.265625 122.054688 C 198.652344 122.78125 198.816406 126.742188 198.535156 128.554688 C 198.304688 130.027344 197.113281 133.890625 196.582031 134.878906 C 196.445312 135.128906 195.675781 135.851562 194.863281 136.484375 C 190.542969 139.855469 184.238281 146.957031 182.097656 150.863281 C 181.152344 152.589844 179.570312 156.289062 178.847656 158.464844 C 177.914062 161.285156 177.414062 165 177.964844 165 C 178.128906 165 178.261719 164.917969 178.261719 164.820312 C 178.261719 164.722656 178.554688 164.3125 178.914062 163.910156 C 179.839844 162.875 179.722656 163.425781 178.6875 164.984375 C 178.207031 165.710938 177.726562 166.304688 177.625 166.304688 C 177.523438 166.304688 177.316406 166.15625 177.164062 165.972656 C 176.957031 165.71875 176.925781 164.996094 177.035156 163.023438 C 177.167969 160.699219 177.289062 160.113281 178.128906 157.75 C 180.136719 152.109375 181.878906 148.808594 184.484375 145.726562 Z M 194.402344 147.195312 C 193.824219 147.347656 193.800781 147 194.347656 146.289062 C 194.621094 145.929688 194.871094 145.8125 195.132812 145.914062 C 196.035156 146.261719 194.734375 151.722656 193.019531 154.761719 C 192.648438 155.421875 191.910156 156.621094 191.378906 157.429688 C 190.847656 158.238281 190.371094 158.902344 190.324219 158.902344 C 190.085938 158.902344 190.285156 158.367188 190.757812 157.742188 C 192.222656 155.8125 194.480469 150.433594 194.734375 148.261719 C 194.867188 147.121094 194.851562 147.078125 194.402344 147.195312 Z M 181.378906 166.304688 C 182.296875 164.925781 184.230469 161.558594 185.503906 159.117188 C 186.648438 156.921875 186.886719 156.570312 187.082031 156.765625 C 187.414062 157.09375 185.234375 162.117188 184.035156 163.800781 C 183.542969 164.488281 182.394531 166.636719 182.394531 166.867188 C 182.394531 167.449219 186.054688 164.539062 188.382812 162.105469 C 189.519531 160.917969 190.875 159.195312 191.613281 158.011719 C 192.3125 156.882812 193.304688 155.292969 193.820312 154.480469 C 194.449219 153.488281 194.90625 152.402344 195.210938 151.179688 C 195.796875 148.84375 196.363281 145.089844 196.195312 144.648438 C 195.714844 143.398438 193.742188 145.523438 191.984375 149.1875 C 191.261719 150.695312 190.667969 152.027344 190.667969 152.148438 C 190.667969 152.269531 190.570312 152.367188 190.449219 152.367188 C 190.332031 152.367188 190.234375 152.269531 190.234375 152.152344 C 190.234375 151.785156 192.082031 147.707031 192.964844 146.128906 C 193.878906 144.488281 196.796875 141.335938 197.179688 141.574219 C 197.515625 141.78125 197.460938 143.9375 197.078125 145.617188 C 196.902344 146.394531 196.519531 148.214844 196.230469 149.660156 C 195.875 151.445312 195.464844 152.773438 194.949219 153.796875 C 194.53125 154.628906 193.746094 156.1875 193.203125 157.265625 C 192.445312 158.769531 191.792969 159.664062 190.40625 161.09375 C 188.210938 163.367188 185.324219 165.949219 183.925781 166.898438 C 183.351562 167.285156 182.554688 167.910156 182.152344 168.289062 C 181.746094 168.667969 181.097656 169.21875 180.710938 169.515625 C 180.015625 170.046875 180 170.046875 180 169.601562 C 180 168.929688 180.628906 167.425781 181.378906 166.304688 Z M 180.289062 157.226562 C 180.492188 155.425781 181.679688 153.375 185.628906 148.011719 C 188.148438 144.589844 190.585938 141.777344 191.863281 140.824219 C 192.289062 140.503906 190.890625 142.265625 189.335938 144.007812 C 188.898438 144.5 188.089844 145.675781 187.546875 146.621094 C 187 147.566406 186.054688 148.925781 185.441406 149.644531 C 184.832031 150.363281 183.871094 151.636719 183.3125 152.476562 C 182.75 153.316406 181.820312 154.929688 181.238281 156.070312 C 180.265625 157.980469 180.195312 158.070312 180.289062 157.226562 Z M 174.160156 149.773438 C 176.1875 146.011719 176.996094 144.0625 176.671875 143.734375 C 176.453125 143.515625 171.800781 147.96875 171.507812 148.671875 C 171.246094 149.308594 170.984375 149.480469 170.78125 149.152344 C 170.550781 148.78125 171.304688 147.601562 172.289062 146.796875 C 172.867188 146.328125 174.054688 145.234375 174.933594 144.363281 C 176.59375 142.714844 177.011719 142.515625 177.371094 143.191406 C 177.722656 143.847656 177.402344 145.027344 176.375 146.847656 C 175.847656 147.789062 174.972656 149.460938 174.433594 150.566406 C 173.890625 151.667969 173.355469 152.628906 173.242188 152.699219 C 172.710938 153.027344 173.140625 151.667969 174.160156 149.773438 Z M 173.792969 157.265625 C 173.636719 157.625 173.410156 158.164062 173.289062 158.464844 L 173.066406 159.011719 L 173.050781 158.457031 C 173.011719 157.058594 174.976562 152.476562 176.988281 149.261719 C 179.105469 145.886719 179.90625 143.125 179.722656 139.847656 C 179.53125 136.441406 178.640625 134.925781 178.082031 137.0625 C 177.644531 138.726562 176.359375 141.140625 175.363281 142.164062 C 174.855469 142.6875 173.722656 143.554688 172.84375 144.09375 C 170.941406 145.261719 170.417969 145.925781 170.230469 147.429688 L 170.085938 148.558594 L 169.679688 147.949219 C 169.292969 147.371094 169.289062 147.308594 169.65625 146.503906 C 170.117188 145.472656 171.050781 144.550781 173.472656 142.734375 C 175.207031 141.429688 175.386719 141.21875 176.339844 139.335938 C 176.898438 138.230469 177.441406 136.816406 177.539062 136.195312 C 177.664062 135.398438 177.828125 135.039062 178.085938 134.988281 C 178.71875 134.867188 179.535156 135.597656 180.140625 136.835938 C 180.925781 138.445312 181.125 141.6875 180.542969 143.464844 C 180.089844 144.851562 179.011719 147.050781 177.859375 148.941406 C 176.527344 151.132812 174.863281 154.351562 174.453125 155.527344 C 174.246094 156.125 173.949219 156.90625 173.792969 157.265625 Z M 166.15625 204.769531 C 165.152344 205.539062 165.078125 205.398438 165.941406 204.339844 C 168.070312 201.632812 168.296875 198.953125 171.632812 195.472656 C 173.046875 194.058594 172.78125 194.339844 173.707031 193.613281 C 174.496094 192.988281 175.613281 192.4375 176.441406 191.984375 C 177.882812 190.703125 178 191.046875 178.507812 193.496094 C 178.851562 195.15625 178.597656 196.296875 177.269531 199.09375 C 175.984375 201.800781 174.089844 204.289062 171.105469 207.191406 C 169.71875 208.539062 168.558594 209.640625 168.523438 209.640625 C 168.125 209.640625 169.9375 207.253906 172.832031 203.980469 C 176.253906 200.097656 178.488281 195.222656 177.839844 193.050781 C 177.703125 192.59375 177.46875 192.21875 177.324219 192.222656 C 176.9375 192.230469 173.652344 194.28125 172.074219 195.820312 C 171.152344 196.722656 169.332031 199.058594 168.875 200.035156 C 167.285156 203.429688 166.792969 204.285156 166.15625 204.769531 Z M 175.074219 196.234375 C 174.074219 196.488281 172.027344 198.039062 170.617188 199.617188 C 169.867188 200.453125 169.214844 201.101562 169.167969 201.054688 C 168.96875 200.855469 169.90625 199.421875 170.9375 198.355469 C 172.152344 197.097656 175.597656 194.832031 176.292969 194.832031 C 176.949219 194.832031 177.042969 195.671875 176.535156 197.019531 C 176.027344 198.371094 173.925781 201.257812 171.988281 203.269531 C 171.265625 204.019531 170.617188 204.632812 170.550781 204.632812 C 170.214844 204.632812 170.539062 204.148438 171.824219 202.71875 C 174.082031 200.210938 175.648438 197.734375 175.648438 196.671875 C 175.648438 196.152344 175.585938 196.105469 175.074219 196.234375 Z M 203.605469 199.078125 C 203.785156 199.796875 204.03125 201.5625 204.15625 203 C 204.308594 204.847656 204.570312 206.21875 205.042969 207.679688 C 205.863281 210.207031 206.058594 210.539062 207.613281 211.980469 L 208.84375 213.121094 L 207.824219 212.566406 C 206.476562 211.835938 205.550781 210.75 204.691406 208.882812 C 203.949219 207.273438 203.640625 205.871094 203.394531 203.007812 C 203.226562 201.015625 203.011719 200.320312 202.507812 200.128906 C 202.082031 199.964844 201.875 200.28125 201.089844 202.273438 C 200.773438 203.074219 200.160156 204.3125 199.726562 205.027344 C 198.652344 206.800781 198.285156 207.929688 198.289062 209.503906 C 198.289062 210.808594 198.339844 210.960938 199.765625 213.832031 C 199.8125 213.921875 199.75 213.996094 199.628906 213.996094 C 199.191406 213.996094 197.910156 212.226562 197.558594 211.140625 C 196.960938 209.289062 197.082031 207.671875 197.957031 205.730469 C 199.015625 203.386719 199.785156 200.3125 199.976562 197.671875 C 200.105469 195.878906 200.214844 195.375 200.519531 195.183594 C 201.445312 194.601562 202.957031 196.511719 203.605469 199.078125 Z M 200.765625 179.273438 C 200.90625 178.882812 200.953125 178.898438 201.34375 179.488281 C 201.578125 179.84375 201.769531 180.230469 201.769531 180.351562 C 201.769531 180.472656 201.28125 181.089844 200.679688 181.726562 C 199.199219 183.296875 198.871094 184.019531 197.835938 188.007812 C 197.347656 189.898438 196.863281 191.597656 196.769531 191.777344 C 196.671875 191.960938 196.429688 193.1875 196.226562 194.503906 C 195.636719 198.355469 195.515625 198.835938 194.464844 201.527344 C 192.859375 205.640625 192.5625 206.851562 192.671875 208.867188 C 192.75 210.265625 192.9375 211.019531 193.589844 212.582031 C 194.042969 213.660156 194.691406 215.316406 195.035156 216.261719 C 195.632812 217.902344 195.894531 218.359375 197.460938 220.472656 C 197.839844 220.980469 198.089844 221.453125 198.023438 221.515625 C 197.71875 221.824219 194.941406 219.179688 193.558594 217.261719 C 191.625 214.582031 190.382812 212.5625 190.484375 212.257812 C 190.53125 212.125 190.933594 212.660156 191.382812 213.441406 C 192.191406 214.84375 193.066406 215.679688 193.46875 215.429688 C 193.722656 215.273438 193.335938 213.570312 192.398438 210.730469 C 191.558594 208.1875 191.609375 206.84375 192.652344 203.761719 C 193.035156 202.625 193.714844 200.320312 194.160156 198.644531 C 194.601562 196.964844 195.308594 194.613281 195.722656 193.417969 C 196.824219 190.246094 196.878906 189.703125 195.898438 191.652344 C 195.421875 192.597656 194.5 194.070312 193.851562 194.917969 C 192.355469 196.882812 192.125 197.457031 191.554688 200.667969 C 190.550781 206.320312 189.398438 208.367188 184.464844 213.234375 C 182.886719 214.792969 180.980469 216.921875 180.230469 217.96875 C 179.476562 219.019531 178.816406 219.875 178.765625 219.875 C 178.515625 219.875 179.121094 218.632812 180.9375 215.410156 C 183.621094 210.652344 184.632812 208.660156 185.078125 207.230469 C 185.449219 206.050781 185.402344 205.285156 184.964844 205.285156 C 184.847656 205.285156 183.363281 206.695312 181.667969 208.421875 C 178.628906 211.515625 178.550781 211.574219 176.042969 212.789062 C 173.976562 213.789062 173.046875 214.410156 171.105469 216.078125 C 169.789062 217.207031 168.652344 218.132812 168.578125 218.132812 C 168.300781 218.132812 169.761719 216.242188 170.886719 215.148438 C 172.351562 213.726562 173.394531 212.976562 175.402344 211.902344 C 176.582031 211.269531 177.519531 210.503906 179.089844 208.878906 C 180.25 207.679688 181.492188 206.257812 181.847656 205.71875 C 182.203125 205.183594 182.804688 204.347656 183.179688 203.871094 C 184.269531 202.488281 185.226562 200.625 185.226562 199.890625 C 185.226562 198.503906 184.796875 198.765625 182.285156 201.679688 C 180.707031 203.507812 178.480469 205.1875 174.566406 207.507812 C 172.644531 208.644531 171.078125 209.765625 170.054688 210.738281 C 169.027344 211.71875 168.183594 212.320312 167.605469 212.492188 C 166.53125 212.816406 166.328125 212.667969 166.816406 211.917969 C 167.113281 211.464844 167.246094 211.402344 167.5 211.613281 C 167.867188 211.917969 168.390625 211.542969 170.734375 209.324219 C 171.734375 208.375 172.789062 207.636719 173.859375 207.128906 C 178.21875 205.054688 181.945312 201.402344 184.289062 196.890625 C 185.816406 193.960938 186.15625 192.828125 186.644531 189.152344 C 186.992188 186.515625 187.464844 185.136719 189.609375 180.511719 C 191.84375 175.699219 192.878906 172.90625 193.28125 170.613281 C 193.96875 166.675781 194.441406 164.777344 195.109375 163.207031 C 195.300781 162.761719 195.457031 162.179688 195.457031 161.914062 C 195.457031 161.460938 195.425781 161.472656 194.96875 162.082031 C 194.699219 162.441406 194.261719 162.964844 193.996094 163.246094 C 193.515625 163.753906 190.246094 168.375 189.070312 170.210938 C 188.730469 170.738281 186.902344 172.699219 185.015625 174.5625 C 180.417969 179.101562 178.925781 181.214844 177.050781 185.839844 L 176.097656 188.1875 L 176.09375 187.101562 C 176.085938 183.796875 178.96875 179.515625 185.769531 172.726562 C 188.519531 169.980469 190.886719 167.078125 190.886719 166.449219 C 190.886719 166.128906 192.808594 163.683594 194.421875 161.945312 L 196.109375 160.132812 L 196.109375 161.128906 C 196.109375 161.679688 195.914062 162.75 195.671875 163.507812 C 195.019531 165.558594 194.152344 169.757812 194.152344 170.875 C 194.144531 172.988281 193.769531 174.359375 192.863281 175.558594 C 192.03125 176.660156 191.070312 178.386719 190.378906 180.023438 C 190.199219 180.441406 189.714844 181.570312 189.304688 182.527344 C 187.960938 185.648438 187.40625 187.828125 187.402344 189.972656 C 187.402344 190.667969 187.257812 192.121094 187.078125 193.199219 C 186.890625 194.351562 186.753906 196.640625 186.75 198.75 C 186.746094 201.765625 186.65625 202.765625 186.1875 204.957031 C 185.882812 206.394531 185.550781 207.957031 185.449219 208.429688 C 185.273438 209.273438 185.476562 210.292969 185.824219 210.292969 C 187.203125 210.292969 190.011719 204.769531 190.015625 202.050781 C 190.019531 200.320312 190.433594 198.308594 191.351562 195.59375 C 192.964844 190.796875 194.359375 188.277344 197.183594 185.050781 C 199.597656 182.296875 199.785156 182 200.765625 179.273438 Z M 190.945312 170.5 C 190.285156 171.460938 188.15625 173.632812 185.5 176.058594 C 184.28125 177.167969 183.011719 178.464844 182.675781 178.9375 C 181.871094 180.078125 181.585938 180.042969 182.21875 178.882812 C 182.496094 178.371094 184.5 176.191406 186.671875 174.035156 C 189.648438 171.082031 190.769531 169.820312 191.214844 168.917969 C 192.421875 166.472656 192.945312 166.347656 192.792969 168.535156 C 192.585938 171.585938 189.996094 176.890625 187.722656 178.933594 C 187.03125 179.554688 187.128906 179.351562 188.402344 177.519531 C 190.039062 175.171875 191.753906 171.414062 191.753906 170.167969 C 191.757812 169.597656 191.488281 169.710938 190.945312 170.5 Z M 207.246094 144.390625 C 205.847656 144.875 204.734375 145.808594 204.117188 147.011719 C 203.867188 147.5 203.488281 148.394531 203.277344 148.992188 C 202.984375 149.808594 202.851562 149.984375 202.742188 149.699219 C 202.449219 148.945312 203.457031 146.515625 204.539062 145.359375 C 205.226562 144.628906 207.058594 143.824219 207.828125 143.917969 C 208.324219 143.980469 208.234375 144.050781 207.246094 144.390625 Z M 212.914062 142.828125 C 212.800781 142.945312 211.460938 143.027344 209.9375 143.019531 C 208.417969 143.007812 206.808594 143.09375 206.363281 143.214844 C 204.96875 143.589844 203.820312 144.796875 202.757812 147 C 201.660156 149.277344 201.203125 150.90625 201.007812 153.238281 L 200.875 154.871094 L 201.304688 154.378906 C 201.914062 153.683594 202.109375 154.15625 201.625 155.148438 C 201.167969 156.078125 200.597656 156.292969 200.261719 155.660156 C 199.96875 155.113281 199.96875 154.484375 200.269531 152.160156 C 200.582031 149.753906 201.53125 147.191406 202.816406 145.3125 C 204.203125 143.28125 205.078125 142.609375 206.683594 142.347656 C 209.417969 141.898438 213.527344 142.21875 212.914062 142.828125 Z M 217.277344 137.847656 C 215.332031 139.464844 213.0625 140.257812 209.0625 140.714844 C 205.625 141.105469 204.917969 141.296875 203.761719 142.132812 C 203.101562 142.609375 202.625 143.261719 201.964844 144.582031 C 201.46875 145.570312 200.535156 147.269531 199.890625 148.355469 C 198.664062 150.414062 197.160156 153.667969 196.097656 156.546875 C 195.335938 158.605469 194.515625 160.25 194.058594 160.628906 C 193.871094 160.785156 193.714844 161.023438 193.714844 161.160156 C 193.710938 161.398438 191.007812 164.121094 189.6875 165.210938 C 189.328125 165.511719 188.203125 166.367188 187.1875 167.117188 C 185.984375 168.003906 184.597656 168.96875 183.253906 169.984375 C 182.707031 170.539062 181.65625 171.320312 179.894531 172.488281 C 177.671875 173.992188 177.035156 174.363281 174.085938 177.492188 C 174.085938 177.492188 174.125 176.050781 174.488281 175.53125 C 176.445312 174.132812 177.675781 172.945312 180.554688 171.230469 C 181.898438 170.125 182.148438 170.039062 183.921875 168.640625 C 185.050781 167.746094 188.992188 165.109375 190.015625 163.800781 C 190.554688 163.109375 191.59375 161.867188 192.324219 161.042969 C 193.429688 159.796875 194.117188 158.617188 196.390625 154.050781 C 197.898438 151.027344 199.710938 147.320312 200.421875 145.804688 C 201.8125 142.847656 202.957031 141.359375 204.339844 140.699219 C 204.921875 140.421875 205.984375 140.273438 208.195312 140.160156 C 212.261719 139.953125 214.589844 139.230469 217.371094 137.316406 C 218.597656 136.472656 218.542969 136.796875 217.277344 137.847656 Z M 225.796875 152.214844 C 226.117188 152.328125 226.074219 155.757812 225.734375 157.375 C 225.597656 158.035156 225.136719 159.113281 224.710938 159.773438 C 224.285156 160.429688 224.007812 160.773438 224.097656 160.535156 C 224.808594 158.589844 225.253906 156.5 225.394531 154.480469 C 225.5 152.890625 225.632812 152.160156 225.796875 152.214844 Z M 242.105469 165.503906 C 239.667969 165.707031 237.929688 166.3125 236.859375 167.335938 C 236.496094 167.683594 236.320312 167.6875 236.4375 167.347656 C 236.484375 167.203125 237.230469 166.589844 238.097656 165.988281 L 239.667969 164.894531 L 241.652344 164.890625 C 244.199219 164.886719 244.511719 165.308594 242.105469 165.503906 Z M 257.183594 154.746094 C 257.316406 154.53125 258.1875 154.832031 259.136719 155.421875 C 259.878906 155.878906 262.304688 158.347656 263.253906 159.613281 C 264.25 160.9375 263.792969 160.746094 262.277344 159.207031 C 261.503906 158.421875 260.210938 157.382812 259.398438 156.894531 C 257.917969 156.011719 256.96875 155.089844 257.183594 154.746094 Z M 262.957031 142.230469 C 263.234375 142.0625 263.570312 142.492188 264.394531 144.082031 C 264.734375 144.734375 265.878906 146.183594 266.945312 147.300781 C 268.007812 148.414062 268.835938 149.375 268.785156 149.425781 C 268.730469 149.480469 267.90625 148.910156 266.957031 148.15625 C 264.1875 145.960938 262.046875 142.792969 262.957031 142.230469 Z M 273.292969 170.160156 C 272.984375 170.613281 272.382812 171.882812 271.960938 172.972656 C 271.535156 174.074219 270.9375 175.195312 270.628906 175.476562 L 270.070312 175.996094 L 270.496094 175.125 C 270.726562 174.644531 271.09375 173.617188 271.308594 172.835938 C 271.921875 170.605469 272.089844 170.265625 272.917969 169.539062 C 273.863281 168.707031 274.0625 169.03125 273.292969 170.160156 Z M 276.984375 183.0625 C 276.53125 183.957031 275.535156 185.511719 273.664062 187.011719 C 272.734375 187.757812 271.851562 188.519531 271.703125 188.703125 C 271.519531 188.929688 271.429688 188.949219 271.429688 188.765625 C 271.429688 188.617188 272.308594 187.574219 273.378906 186.449219 C 275.378906 184.351562 275.871094 183.625 276.300781 182.148438 C 276.785156 180.542969 277.65625 182.023438 276.984375 183.0625 Z M 276.984375 183.0625 " fill-opacity="1" fill-rule="nonzero"/></g><path fill="#6a7d25" d="M 114.230469 115.398438 C 115.523438 115.191406 115.652344 114.925781 115.371094 113.042969 C 114.808594 109.257812 115.257812 105.460938 116.585938 102.730469 C 117.21875 101.429688 119.355469 99.160156 120.828125 98.226562 C 123.074219 96.800781 125.816406 95.65625 127.59375 95.402344 C 128.101562 95.328125 129.058594 95.136719 129.714844 94.972656 C 130.375 94.808594 131.941406 94.417969 133.199219 94.105469 C 134.457031 93.796875 135.875 93.40625 136.355469 93.242188 C 139.078125 92.3125 140.300781 91.773438 141.742188 90.875 C 143.453125 89.808594 146.695312 86.667969 146.695312 86.082031 C 146.695312 85.886719 146.820312 85.726562 146.96875 85.722656 C 147.667969 85.703125 146.046875 85.089844 145.273438 85.082031 C 144.472656 85.074219 144.269531 85.207031 142.882812 86.617188 C 141.21875 88.308594 139.421875 89.675781 137.515625 90.703125 C 136.109375 91.460938 132.683594 92.558594 130.585938 92.925781 C 129.808594 93.058594 127.898438 93.507812 126.34375 93.917969 C 119.136719 95.820312 114.863281 99.300781 112.929688 104.832031 C 112.066406 107.300781 112.21875 112.839844 113.207031 115.011719 C 113.410156 115.457031 113.546875 115.511719 114.230469 115.398438 Z M 114.230469 115.398438 " fill-opacity="1" fill-rule="nonzero"/><path fill="#6a7d25" d="M 120.054688 108.160156 C 120.121094 108.160156 120.730469 107.664062 121.40625 107.0625 C 122.738281 105.875 124.90625 104.675781 125.71875 104.675781 C 125.996094 104.675781 126.542969 104.480469 126.933594 104.242188 C 127.328125 104 127.859375 103.804688 128.117188 103.804688 C 128.695312 103.804688 129.589844 102.78125 129.941406 101.710938 C 130.242188 100.796875 130.085938 96.246094 129.738281 95.902344 C 129.386719 95.546875 128.433594 95.9375 128.105469 96.566406 C 127.609375 97.519531 126.898438 98.058594 124.925781 98.964844 C 121.636719 100.480469 120.945312 101.6875 120.023438 107.5625 L 120.023438 107.558594 C 119.972656 107.890625 119.984375 108.160156 120.054688 108.160156 Z M 123.515625 102.636719 C 124.730469 101.820312 125.9375 100.558594 126.761719 99.257812 C 127.417969 98.214844 127.714844 98.003906 127.890625 98.460938 C 128.261719 99.417969 126.480469 101.519531 124.324219 102.671875 C 122.609375 103.585938 122.136719 103.566406 123.515625 102.636719 Z M 123.515625 102.636719 " fill-opacity="1" fill-rule="nonzero"/><path fill="#6a7d25" d="M 100.359375 136.742188 C 100.257812 137.234375 101.253906 136.785156 101.933594 136.035156 C 102.839844 135.03125 102.820312 135.136719 102.394531 133.496094 C 101.769531 131.089844 102.097656 128.582031 103.320312 126.453125 C 104.121094 125.066406 106.429688 122.734375 108.148438 121.578125 C 109.640625 120.578125 113.902344 118.394531 114.371094 118.394531 C 114.511719 118.394531 114.910156 118.257812 115.257812 118.09375 C 115.605469 117.925781 116.921875 117.335938 118.179688 116.78125 C 119.441406 116.226562 120.984375 115.382812 121.613281 114.90625 C 122.242188 114.429688 122.878906 114.039062 123.023438 114.039062 C 123.171875 114.039062 123.78125 113.855469 124.382812 113.628906 C 124.980469 113.402344 126.253906 113.046875 127.210938 112.835938 C 129.441406 112.351562 130.582031 111.8125 131.757812 110.691406 C 132.710938 109.789062 133.414062 108.625 133.988281 106.996094 C 134.421875 105.765625 134.589844 103.1875 134.289062 102.394531 L 134.042969 101.746094 L 132.644531 103.210938 C 131.046875 104.894531 129.695312 105.816406 128.105469 106.320312 C 126.242188 106.914062 124.851562 107.644531 124.105469 108.425781 C 123.511719 109.046875 123.335938 109.476562 123.050781 111.007812 C 122.660156 113.132812 122.386719 113.636719 121.273438 114.324219 C 120.476562 114.816406 117.558594 115.773438 115.503906 116.214844 C 113.394531 116.671875 108.5625 118.394531 106.691406 119.359375 C 105.199219 120.132812 104.347656 120.773438 102.90625 122.210938 C 100.179688 124.933594 99.222656 127.1875 99.207031 130.917969 C 99.195312 132.980469 99.449219 134.460938 100.039062 135.785156 C 100.234375 136.21875 100.378906 136.652344 100.359375 136.742188 Z M 127.539062 110.617188 C 128.179688 110.347656 130.148438 108.644531 130.148438 108.359375 C 130.148438 108.058594 131.039062 107.230469 131.191406 107.386719 C 131.40625 107.601562 130.617188 108.910156 129.695312 109.867188 C 128.804688 110.800781 127.484375 111.738281 126.230469 112.332031 C 125.371094 112.742188 123.835938 113.011719 123.835938 112.753906 C 123.835938 112.335938 124.941406 111.699219 127.539062 110.617188 Z M 127.539062 110.617188 " fill-opacity="1" fill-rule="nonzero"/><path fill="#6a7d25" d="M 144.367188 107.371094 C 145.109375 106.929688 145.886719 106.417969 146.097656 106.242188 C 146.511719 105.886719 146.617188 105.109375 146.253906 105.109375 C 145.796875 105.109375 143.265625 106.488281 141.859375 107.554688 C 139.976562 108.980469 141.574219 106.40625 138.914062 106.199219 C 136.621094 106.019531 134.621094 109.972656 133.953125 111.351562 C 132.703125 113.929688 131.144531 117.75 132.132812 121.3125 L 132.367188 122.164062 L 132.886719 120.886719 C 133.679688 118.929688 136.027344 116.664062 138.09375 116.136719 C 139.714844 115.695312 144.980469 112.757812 144.15625 109.613281 C 143.886719 108.757812 141.929688 109.46875 142.445312 108.859375 C 142.761719 108.484375 143.625 107.8125 144.367188 107.371094 Z M 139.890625 110.257812 C 139.621094 110.390625 138.910156 110.75 138.308594 111.050781 C 136.78125 111.855469 135.730469 113.332031 134.820312 114.800781 L 134.269531 115.453125 L 134.414062 114.691406 C 134.898438 112.152344 137.460938 109.683594 139.613281 109.683594 C 140.492188 109.683594 140.597656 109.898438 139.890625 110.257812 Z M 139.890625 110.257812 " fill-opacity="1" fill-rule="nonzero"/><g fill="#6a7d25" fill-opacity="1"><g transform="translate(91.051691, 284.935234)"><g><path d="M -0.214844 0 L 3.3125 0 C 3.382812 -0.46875 3.691406 -1.0625 4.121094 -1.980469 L 4.644531 -2.953125 L 11.789062 -2.953125 L 12.3125 -1.996094 C 12.835938 -1.0625 13.050781 -0.484375 13.121094 0 L 16.648438 0 C 16.164062 -0.703125 15.460938 -1.855469 14.867188 -3.023438 L 11.410156 -9.59375 C 10.925781 -10.585938 10.601562 -11.789062 10.441406 -12.601562 L 6.03125 -12.601562 C 5.902344 -11.898438 5.597656 -10.765625 5.003906 -9.574219 L 1.585938 -3.023438 C 0.972656 -1.871094 0.269531 -0.703125 -0.214844 0 Z M 5.6875 -5.09375 L 7.34375 -8.296875 C 7.667969 -9 7.882812 -9.574219 8.136719 -10.296875 L 8.296875 -10.296875 C 8.53125 -9.59375 8.765625 -8.980469 9.070312 -8.316406 L 10.746094 -5.09375 Z M 5.6875 -5.09375 "/></g></g></g><g fill="#6a7d25" fill-opacity="1"><g transform="translate(110.689645, 284.935234)"><g><path d="M 1.457031 0 L 4.914062 0 C 4.753906 -0.628906 4.589844 -1.960938 4.589844 -3.222656 L 4.589844 -9.125 L 4.804688 -9.125 L 13.554688 0 L 16.128906 0 L 16.128906 -9.574219 C 16.128906 -10.800781 16.253906 -11.898438 16.453125 -12.601562 L 12.996094 -12.601562 C 13.15625 -12.023438 13.320312 -10.871094 13.320312 -9.628906 L 13.320312 -3.761719 L 13.085938 -3.761719 L 4.714844 -12.601562 L 1.457031 -12.601562 C 1.675781 -11.898438 1.800781 -10.800781 1.800781 -9.574219 L 1.800781 -3.023438 C 1.800781 -1.800781 1.65625 -0.703125 1.457031 0 Z M 1.457031 0 "/></g></g></g><g fill="#6a7d25" fill-opacity="1"><g transform="translate(131.80359, 284.935234)"><g><path d="M 1.457031 0 L 4.914062 0 C 4.753906 -0.628906 4.589844 -1.960938 4.589844 -3.222656 L 4.589844 -9.125 L 4.804688 -9.125 L 13.554688 0 L 16.128906 0 L 16.128906 -9.574219 C 16.128906 -10.800781 16.253906 -11.898438 16.453125 -12.601562 L 12.996094 -12.601562 C 13.15625 -12.023438 13.320312 -10.871094 13.320312 -9.628906 L 13.320312 -3.761719 L 13.085938 -3.761719 L 4.714844 -12.601562 L 1.457031 -12.601562 C 1.675781 -11.898438 1.800781 -10.800781 1.800781 -9.574219 L 1.800781 -3.023438 C 1.800781 -1.800781 1.65625 -0.703125 1.457031 0 Z M 1.457031 0 "/></g></g></g><g fill="#6a7d25" fill-opacity="1"><g transform="translate(152.917531, 284.935234)"><g><path d="M 6.28125 -0.0195312 L 9.664062 -0.0195312 C 9.503906 -0.628906 9.378906 -1.511719 9.378906 -2.644531 L 9.378906 -4.734375 L 13.824219 -10.171875 C 14.617188 -11.195312 15.355469 -12.058594 15.910156 -12.601562 L 12.148438 -12.601562 C 11.878906 -12.097656 11.554688 -11.464844 10.871094 -10.566406 L 8.046875 -7.054688 L 7.882812 -7.054688 L 5.058594 -10.566406 C 4.410156 -11.464844 4.066406 -12.097656 3.796875 -12.601562 L 0.0195312 -12.601562 C 0.59375 -12.058594 1.332031 -11.195312 2.125 -10.171875 L 6.570312 -4.753906 L 6.570312 -2.664062 C 6.570312 -1.53125 6.445312 -0.628906 6.28125 -0.0195312 Z M 6.28125 -0.0195312 "/></g></g></g><g fill="#6a7d25" fill-opacity="1"><g transform="translate(172.06948, 284.935234)"><g><path d="M 1.457031 0 L 4.914062 0 C 4.699219 -0.703125 4.589844 -1.765625 4.589844 -2.96875 L 4.609375 -6.804688 L 4.753906 -6.804688 C 5.203125 -4.339844 7.324219 -3.222656 10.207031 -3.222656 C 13.195312 -3.222656 15.40625 -4.984375 15.40625 -7.992188 C 15.40625 -10.960938 12.90625 -12.601562 9.523438 -12.601562 L 1.457031 -12.601562 C 1.65625 -11.898438 1.800781 -10.800781 1.800781 -9.574219 L 1.800781 -3.023438 C 1.800781 -1.800781 1.675781 -0.703125 1.457031 0 Z M 9.144531 -5.507812 C 6.875 -5.507812 4.625 -6.785156 4.609375 -8.980469 L 4.609375 -10.207031 C 6.03125 -10.351562 7.46875 -10.367188 9.089844 -10.367188 C 11.320312 -10.367188 12.601562 -9.46875 12.601562 -7.992188 C 12.601562 -6.445312 10.980469 -5.507812 9.144531 -5.507812 Z M 9.144531 -5.507812 "/></g></g></g><g fill="#6a7d25" fill-opacity="1"><g transform="translate(191.167436, 284.935234)"><g><path d="M 8.441406 0.253906 C 12.78125 0.253906 15.226562 -1.925781 15.226562 -5.507812 L 15.226562 -9.574219 C 15.226562 -10.800781 15.355469 -11.898438 15.550781 -12.601562 L 12.097656 -12.601562 C 12.292969 -11.898438 12.421875 -10.746094 12.421875 -9.539062 L 12.421875 -5.921875 C 12.421875 -3.636719 10.800781 -2.195312 8.441406 -2.195312 C 6.085938 -2.195312 4.480469 -3.636719 4.480469 -5.921875 L 4.480469 -9.539062 C 4.480469 -10.746094 4.609375 -11.898438 4.789062 -12.601562 L 1.351562 -12.601562 C 1.546875 -11.898438 1.675781 -10.800781 1.675781 -9.574219 L 1.675781 -5.507812 C 1.675781 -1.835938 4.230469 0.253906 8.441406 0.253906 Z M 8.441406 0.253906 "/></g></g></g><g fill="#6a7d25" fill-opacity="1"><g transform="translate(211.273389, 284.935234)"><g><path d="M 10.945312 0.269531 C 12.058594 0.269531 13.195312 -0.0351562 13.644531 -0.125 L 13.804688 -2.898438 C 13.050781 -2.59375 11.628906 -2.375 10.078125 -2.375 L 4.589844 -2.375 L 4.589844 -9.289062 C 4.589844 -10.511719 4.734375 -11.898438 4.914062 -12.601562 L 1.457031 -12.601562 C 1.65625 -11.898438 1.800781 -10.800781 1.800781 -9.574219 L 1.800781 -3.023438 C 1.800781 -1.800781 1.675781 -0.449219 1.457031 0.269531 C 2.285156 0.0351562 3.671875 -0.253906 5.328125 -0.253906 C 7.542969 -0.253906 8.875 0.269531 10.945312 0.269531 Z M 10.945312 0.269531 "/></g></g></g><g fill="#6a7d25" fill-opacity="1"><g transform="translate(228.787345, 284.935234)"><g><path d="M -0.214844 0 L 3.3125 0 C 3.382812 -0.46875 3.691406 -1.0625 4.121094 -1.980469 L 4.644531 -2.953125 L 11.789062 -2.953125 L 12.3125 -1.996094 C 12.835938 -1.0625 13.050781 -0.484375 13.121094 0 L 16.648438 0 C 16.164062 -0.703125 15.460938 -1.855469 14.867188 -3.023438 L 11.410156 -9.59375 C 10.925781 -10.585938 10.601562 -11.789062 10.441406 -12.601562 L 6.03125 -12.601562 C 5.902344 -11.898438 5.597656 -10.765625 5.003906 -9.574219 L 1.585938 -3.023438 C 0.972656 -1.871094 0.269531 -0.703125 -0.214844 0 Z M 5.6875 -5.09375 L 7.34375 -8.296875 C 7.667969 -9 7.882812 -9.574219 8.136719 -10.296875 L 8.296875 -10.296875 C 8.53125 -9.59375 8.765625 -8.980469 9.070312 -8.316406 L 10.746094 -5.09375 Z M 5.6875 -5.09375 "/></g></g></g><g fill="#6a7d25" fill-opacity="1"><g transform="translate(248.425303, 284.935234)"><g><path d="M 14.472656 0.269531 C 15.390625 0.269531 16.253906 -0.109375 16.667969 -0.664062 L 16.542969 -3.78125 C 16.21875 -3.007812 15.785156 -2.519531 14.8125 -2.519531 C 12.835938 -2.519531 13.265625 -5.707031 9.484375 -5.707031 L 9.34375 -5.707031 L 9.34375 -5.851562 L 10.441406 -5.851562 C 13.339844 -5.851562 15.300781 -7.273438 15.300781 -9.304688 C 15.300781 -11.429688 13.210938 -12.601562 10.1875 -12.601562 L 1.476562 -12.601562 C 1.675781 -11.898438 1.800781 -10.800781 1.800781 -9.574219 L 1.800781 -3.023438 C 1.800781 -1.800781 1.675781 -0.71875 1.476562 0 L 4.933594 0 C 4.714844 -0.71875 4.609375 -1.691406 4.609375 -2.898438 L 4.609375 -4.769531 C 5.023438 -4.894531 6.445312 -4.933594 6.964844 -4.933594 C 12.132812 -4.933594 9.773438 0.269531 14.472656 0.269531 Z M 4.609375 -6.929688 L 4.609375 -10.171875 L 9.898438 -10.171875 C 11.449219 -10.171875 12.492188 -9.558594 12.492188 -8.550781 C 12.492188 -7.507812 11.429688 -6.929688 9.773438 -6.929688 Z M 4.609375 -6.929688 "/></g></g></g><g fill="#6a7d25" fill-opacity="1"><g transform="translate(268.495251, 284.935234)"><g><path d="M 1.457031 0 L 14.148438 0 L 14.671875 -2.863281 C 14.148438 -2.574219 13.339844 -2.394531 11.914062 -2.394531 L 4.589844 -2.394531 L 4.589844 -5.148438 L 10.386719 -5.148438 C 11.25 -5.148438 11.84375 -5.113281 12.277344 -5.039062 L 12.277344 -7.597656 C 11.84375 -7.523438 11.25 -7.488281 10.386719 -7.488281 L 4.589844 -7.488281 L 4.589844 -10.207031 L 11.789062 -10.207031 C 13.03125 -10.207031 13.824219 -10.078125 14.238281 -9.882812 L 13.789062 -12.601562 L 1.457031 -12.601562 C 1.65625 -11.898438 1.800781 -10.800781 1.800781 -9.574219 L 1.800781 -3.023438 C 1.800781 -1.800781 1.675781 -0.703125 1.457031 0 Z M 1.457031 0 "/></g></g></g></svg>